<svg width="974" height="421" xmlns="http://www.w3.org/2000/svg" xmlns:xlink="http://www.w3.org/1999/xlink" xml:space="preserve" overflow="hidden"><defs><clipPath id="clip0"><rect x="777" y="1092" width="974" height="421"/></clipPath></defs><g clip-path="url(#clip0)" transform="translate(-777 -1092)"><path d="M1304 1302 1749.62 1302" stroke="#000000" stroke-width="2.29167" stroke-miterlimit="8" fill="none" fill-rule="evenodd"/><path d="M1229 1092 1341.89 1092 1344.48 1092 1344.48 1092.73 1357.03 1096.27C1391.25 1115.85 1417 1200.52 1417 1302 1417 1403.48 1391.25 1488.15 1357.03 1507.73L1344.48 1511.27 1344.48 1512 1341.89 1512 1341.89 1512 1341.89 1512 1229 1512 1244.14 1507.73C1252.69 1502.84 1260.72 1493.88 1267.95 1481.6L1285.84 1438.3 1272.68 1383.74C1268.88 1358.62 1266.78 1331 1266.78 1302 1266.78 1273.01 1268.88 1245.38 1272.68 1220.26L1285.44 1167.32 1282.11 1153.51C1268.52 1115.51 1249.74 1092 1229 1092Z" fill="#A5A5A5" fill-rule="evenodd"/><path d="M1229 1092 1230 1092 1229 1093 1229 1092Z" fill="#7C7C7C" fill-rule="evenodd"/><path d="M1229 1512 1230 1513 1229 1513 1229 1512Z" fill="#7C7C7C" fill-rule="evenodd"/><path d="M1155 1302C1155 1186.02 1188.35 1092 1229.5 1092 1270.65 1092 1304 1186.02 1304 1302 1304 1417.98 1270.65 1512 1229.5 1512 1188.35 1512 1155 1417.98 1155 1302Z" fill="#7C7C7C" fill-rule="evenodd"/><path d="M777 1302 1222.62 1302" stroke="#000000" stroke-width="2.29167" stroke-miterlimit="8" fill="none" fill-rule="evenodd"/><path d="M894 1196.85 1045.86 1196.85 1045.86 1199.15 894 1199.15ZM1041.28 1184.25 1068.78 1198 1041.28 1211.75Z" fill="#4472C4"/><path d="M894 1405.85 1045.86 1405.85 1045.86 1408.15 894 1408.15ZM1041.28 1393.25 1068.78 1407 1041.28 1420.75Z" fill="#4472C4"/><path d="M1497 1196.85 1648.86 1196.85 1648.86 1199.15 1497 1199.15ZM1644.28 1184.25 1671.78 1198 1644.28 1211.75Z" fill="#4472C4"/><path d="M1497 1405.85 1648.86 1405.85 1648.86 1408.15 1497 1408.15ZM1644.28 1393.25 1671.78 1407 1644.28 1420.75Z" fill="#4472C4"/></g></svg>