<svg width="974" height="895" xmlns="http://www.w3.org/2000/svg" xmlns:xlink="http://www.w3.org/1999/xlink" xml:space="preserve" overflow="hidden"><defs><clipPath id="clip0"><rect x="1063" y="1498" width="974" height="895"/></clipPath></defs><g clip-path="url(#clip0)" transform="translate(-1063 -1498)"><path d="M1590 1939 2035.62 1939" stroke="#000000" stroke-width="2.29167" stroke-miterlimit="8" fill="none" fill-rule="evenodd"/><path d="M1515 1729 1627.29 1729 1629.87 1729 1629.87 1729.73 1642.34 1733.27C1676.39 1752.85 1702 1837.52 1702 1939 1702 2040.48 1676.39 2125.15 1642.34 2144.73L1629.87 2148.27 1629.87 2149 1627.29 2149 1627.29 2149 1627.29 2149 1515 2149 1530.06 2144.73C1538.57 2139.84 1546.55 2130.88 1553.74 2118.6L1571.53 2075.3 1558.45 2020.74C1554.67 1995.62 1552.57 1968 1552.57 1939 1552.57 1910.01 1554.67 1882.38 1558.45 1857.26L1571.14 1804.32 1567.83 1790.51C1554.31 1752.51 1535.63 1729 1515 1729Z" fill="#A5A5A5" fill-rule="evenodd"/><path d="M1515 1729 1516 1729 1515 1730 1515 1729Z" fill="#7C7C7C" fill-rule="evenodd"/><path d="M1515 2149 1516 2150 1515 2150 1515 2149Z" fill="#7C7C7C" fill-rule="evenodd"/><path d="M1441 1939C1441 1823.02 1474.35 1729 1515.5 1729 1556.65 1729 1590 1823.02 1590 1939 1590 2054.98 1556.65 2149 1515.5 2149 1474.35 2149 1441 2054.98 1441 1939Z" fill="#7C7C7C" fill-rule="evenodd"/><path d="M1063 1939 1508.62 1939" stroke="#000000" stroke-width="2.29167" stroke-miterlimit="8" fill="none" fill-rule="evenodd"/><path d="M2.36601e-06-1.14583 151.86-1.14552 151.86 1.14615-2.36601e-06 1.14583ZM147.276-13.7497 174.776 0.000360892 147.276 13.7503Z" fill="#4472C4" transform="matrix(-1.83697e-16 -1 -1 1.83697e-16 1571 1700.78)"/><path d="M2.36601e-06-1.14583 151.86-1.14552 151.86 1.14615-2.36601e-06 1.14583ZM147.276-13.7497 174.776 0.000360892 147.276 13.7503Z" fill="#4472C4" transform="matrix(6.12323e-17 1 1 -6.12323e-17 1571 2190)"/><path d="M1177 1830.85 1328.86 1830.85 1328.86 1833.15 1177 1833.15ZM1324.28 1818.25 1351.78 1832 1324.28 1845.75Z" fill="#4472C4"/><path d="M1177 2039.85 1328.86 2039.85 1328.86 2042.15 1177 2042.15ZM1324.28 2027.25 1351.78 2041 1324.28 2054.75Z" fill="#4472C4"/></g></svg>