<svg width="812" height="785" xmlns="http://www.w3.org/2000/svg" xmlns:xlink="http://www.w3.org/1999/xlink" xml:space="preserve" overflow="hidden"><g transform="translate(-405 -1434)"><path d="M0 0 0.000360892 649.606" stroke="#000000" stroke-width="2.29167" stroke-miterlimit="8" stroke-dasharray="9.16667 6.875" fill="none" fill-rule="evenodd" transform="matrix(-1 0 0 1 483 1540)"/><path d="M0 0 0.000360892 649.606" stroke="#000000" stroke-width="2.29167" stroke-miterlimit="8" stroke-dasharray="9.16667 6.875" fill="none" fill-rule="evenodd" transform="matrix(-1 0 0 1 809 1542)"/><path d="M3.4375-1.70018e-06 3.43785 706.75-3.43715 706.75-3.4375 1.70018e-06ZM13.7503 702.167 0.000360892 729.667-13.7497 702.167Z" transform="matrix(1 0 0 -1 433.5 2192.17)"/><path d="M433.5 2187.06 1146.09 2187.06 1146.09 2193.94 433.5 2193.94ZM1141.5 2176.75 1169 2190.5 1141.5 2204.25Z"/><path d="M804.5 2061.5 1051.02 2061.5" stroke="#4472C4" stroke-width="6.875" stroke-miterlimit="8" fill="none" fill-rule="evenodd"/><path d="M804.5 2061.5C804.5 2061.5 804.5 2061.5 804.5 2061.5 804.5 2061.5 804.5 2061.5 804.5 2061.5 804.5 2061.5 804.5 2061.5 804.5 2061.5 804.5 2061.5 804.5 2061.5 804.5 2061.5Z" stroke="#172C51" stroke-width="4.58333" stroke-miterlimit="8" fill="#4472C4" fill-rule="evenodd"/><path d="M433.5 1620.5C433.5 1620.5 433.5 1620.5 433.5 1620.5 433.5 1620.5 433.5 1620.5 433.5 1620.5 433.5 1620.5 433.5 1620.5 433.5 1620.5 433.5 1620.5 433.5 1620.5 433.5 1620.5Z" stroke="#172C51" stroke-width="4.58333" stroke-miterlimit="8" fill="#4472C4" fill-rule="evenodd"/><path d="M433.5 1957.5C433.5 1957.5 433.5 1957.5 433.5 1957.5 433.5 1957.5 433.5 1957.5 433.5 1957.5 433.5 1957.5 433.5 1957.5 433.5 1957.5 433.5 1957.5 433.5 1957.5 433.5 1957.5Z" stroke="#172C51" stroke-width="4.58333" stroke-miterlimit="8" fill="#4472C4" fill-rule="evenodd"/><path d="M803.5 1689.5C803.5 1689.5 803.5 1689.5 803.5 1689.5 803.5 1689.5 803.5 1689.5 803.5 1689.5 803.5 1689.5 803.5 1689.5 803.5 1689.5 803.5 1689.5 803.5 1689.5 803.5 1689.5Z" stroke="#172C51" stroke-width="4.58333" stroke-miterlimit="8" fill="#4472C4" fill-rule="evenodd"/><path d="M1051.5 1913.5C1051.5 1913.5 1051.5 1913.5 1051.5 1913.5 1051.5 1913.5 1051.5 1913.5 1051.5 1913.5 1051.5 1913.5 1051.5 1913.5 1051.5 1913.5 1051.5 1913.5 1051.5 1913.5 1051.5 1913.5Z" stroke="#172C51" stroke-width="4.58333" stroke-miterlimit="8" fill="#4472C4" fill-rule="evenodd"/><path d="M1051.5 2061.5C1051.5 2061.5 1051.5 2061.5 1051.5 2061.5 1051.5 2061.5 1051.5 2061.5 1051.5 2061.5 1051.5 2061.5 1051.5 2061.5 1051.5 2061.5 1051.5 2061.5 1051.5 2061.5 1051.5 2061.5Z" stroke="#172C51" stroke-width="4.58333" stroke-miterlimit="8" fill="#4472C4" fill-rule="evenodd"/><text font-family="Calibri,Calibri_MSFontService,sans-serif" font-weight="400" font-size="64" transform="matrix(1 0 0 1 952.566 2137)">Pressure</text><text font-family="Calibri,Calibri_MSFontService,sans-serif" font-weight="400" font-size="64" transform="matrix(1 0 0 1 970.612 1878)">Velocity</text><path d="M483.5 1620.5C483.5 1620.5 483.5 1620.5 483.5 1620.5 483.5 1620.5 483.501 1620.5 483.501 1620.5 483.501 1620.5 483.5 1620.5 483.5 1620.5 483.5 1620.5 483.5 1620.5 483.5 1620.5Z" stroke="#172C51" stroke-width="4.58333" stroke-miterlimit="8" fill="#4472C4" fill-rule="evenodd"/><path d="M433.5 1620.5 483.344 1620.5" stroke="#4472C4" stroke-width="6.875" stroke-miterlimit="8" fill="none" fill-rule="evenodd"/><path d="M483.5 1621.5C533.038 1837.06 582.576 2052.62 806.5 2061.5" stroke="#4472C4" stroke-width="6.875" stroke-miterlimit="8" fill="none" fill-rule="evenodd"/><path d="M483.5 1957.5C483.5 1957.5 483.5 1957.5 483.5 1957.5 483.5 1957.5 483.501 1957.5 483.501 1957.5 483.501 1957.5 483.5 1957.5 483.5 1957.5 483.5 1957.5 483.5 1957.5 483.5 1957.5Z" stroke="#172C51" stroke-width="4.58333" stroke-miterlimit="8" fill="#4472C4" fill-rule="evenodd"/><path d="M0 0 49.8436 0.000360892" stroke="#ED7D31" stroke-width="6.875" stroke-miterlimit="8" fill="none" fill-rule="evenodd" transform="matrix(1 0 0 -1 433.5 1957.5)"/><path d="M0 0C49.5382 131.785 99.0765 263.571 323 269" stroke="#ED7D31" stroke-width="6.875" stroke-miterlimit="8" fill="none" fill-rule="evenodd" transform="matrix(1 0 0 -1 485.5 1959.5)"/><path d="M936.5 1913.5C936.5 1913.5 936.5 1913.5 936.5 1913.5 936.5 1913.5 936.5 1913.5 936.5 1913.5 936.5 1913.5 936.5 1913.5 936.5 1913.5 936.5 1913.5 936.5 1913.5 936.5 1913.5Z" stroke="#172C51" stroke-width="4.58333" stroke-miterlimit="8" fill="#4472C4" fill-rule="evenodd"/><path d="M936.5 1913.5 1051.66 1913.5" stroke="#ED7D31" stroke-width="6.875" stroke-miterlimit="8" fill="none" fill-rule="evenodd"/><path d="M935.5 1913.5C904.253 1809.26 873.007 1705.02 806.5 1690.5" stroke="#ED7D31" stroke-width="6.875" stroke-miterlimit="8" fill="none" fill-rule="evenodd"/><path d="M935 1622 935.8 2189.74" stroke="#000000" stroke-width="2.29167" stroke-miterlimit="8" stroke-dasharray="9.16667 6.875" fill="none" fill-rule="evenodd"/><text font-family="Calibri,Calibri_MSFontService,sans-serif" font-weight="400" font-size="55" transform="matrix(1 0 0 1 586.038 1588)">Stator</text><text font-family="Calibri,Calibri_MSFontService,sans-serif" font-weight="400" font-size="55" transform="matrix(1 0 0 1 871.62 1590)">Blade</text></g></svg>