<svg width="1140" height="1050" xmlns="http://www.w3.org/2000/svg" xmlns:xlink="http://www.w3.org/1999/xlink" xml:space="preserve" overflow="hidden"><g transform="translate(-254 -432)"><path d="M152.12 0 151.5 0.0264759 150.88 0C77.368 0 16.0351 44.1509 1.85044 102.844L0.991949 107.607 0.991808 107.607 0 113.109 0.475446 116.1C1.63015 119.567 4.33324 122 7.48374 122L9.48694 121.486 12.1561 119.775 12.862 119.171C13.5502 118.297 14.1072 117.256 14.492 116.1L14.9312 113.337 14.9313 113.337 14.4921 116.1C14.1072 117.256 13.5503 118.297 12.8621 119.171L12.1562 119.775 21.0359 114.082C57.8923 92.4492 102.638 79.773 150.88 79.773L151.5 79.7963 152.12 79.773C200.362 79.773 245.108 92.4492 281.964 114.082L290.844 119.775 290.138 119.171C289.45 118.297 288.893 117.256 288.508 116.1L288.069 113.337 288.069 113.337 288.508 116.1C288.893 117.256 289.45 118.297 290.138 119.171L290.844 119.775 293.513 121.486 295.516 122C298.667 122 301.37 119.567 302.524 116.1L303 113.109 302.008 107.607 302.008 107.607 301.149 102.844C286.965 44.1509 225.632 0 152.12 0Z" fill="#7C7C7C" fill-rule="evenodd" transform="matrix(-1 0 0 1 1033 821)"/><path d="M152.12 0 151.5 0.0264759 150.88 0C77.368 0 16.0351 44.1509 1.85044 102.844L0.991949 107.607 0.991808 107.607 0 113.109 0.475446 116.1C1.63015 119.567 4.33324 122 7.48374 122L9.48694 121.486 12.1561 119.775 12.862 119.171C13.5502 118.297 14.1072 117.256 14.492 116.1L14.9312 113.337 14.9313 113.337 14.4921 116.1C14.1072 117.256 13.5503 118.297 12.8621 119.171L12.1562 119.775 21.0359 114.082C57.8923 92.4492 102.638 79.773 150.88 79.773L151.5 79.7963 152.12 79.773C200.362 79.773 245.108 92.4492 281.964 114.082L290.844 119.775 290.138 119.171C289.45 118.297 288.893 117.256 288.508 116.1L288.069 113.337 288.069 113.337 288.508 116.1C288.893 117.256 289.45 118.297 290.138 119.171L290.844 119.775 293.513 121.486 295.516 122C298.667 122 301.37 119.567 302.524 116.1L303 113.109 302.008 107.607 302.008 107.607 301.149 102.844C286.965 44.1509 225.632 0 152.12 0Z" fill="#7C7C7C" fill-rule="evenodd" transform="matrix(-1 0 0 1 1033 631)"/><path d="M152.12 0 151.5 0.0262589 150.88 0C77.368 0 16.0351 43.789 1.85044 102.001L0.991949 106.725 0.991808 106.725 0 112.182 0.475446 115.148C1.63015 118.587 4.33324 121 7.48374 121L9.48694 120.491 12.1561 118.793 12.862 118.194C13.5502 117.327 14.1072 116.295 14.492 115.148L14.9312 112.408 14.9313 112.408 14.4921 115.148C14.1072 116.295 13.5503 117.327 12.8621 118.194L12.1562 118.793 21.0359 113.147C57.8923 91.6914 102.638 79.1191 150.88 79.1191L151.5 79.1422 152.12 79.1191C200.362 79.1191 245.108 91.6914 281.964 113.147L290.844 118.793 290.138 118.194C289.45 117.327 288.893 116.295 288.508 115.148L288.069 112.408 288.069 112.408 288.508 115.148C288.893 116.295 289.45 117.327 290.138 118.194L290.844 118.793 293.513 120.491 295.516 121C298.667 121 301.37 118.587 302.524 115.148L303 112.182 302.008 106.725 302.008 106.725 301.149 102.001C286.965 43.789 225.632 0 152.12 0Z" fill="#7C7C7C" fill-rule="evenodd" transform="matrix(-1 0 0 1 1033 1202)"/><path d="M10.3125-3.42892e-05 10.3127 56.9762-10.3123 56.9763-10.3125 3.42892e-05ZM30.9377 46.6636 0.000360892 108.539-30.9373 46.6638Z" transform="matrix(1 0 0 -1 872.5 604.039)"/><path d="M652.691 873.407 640.753 884.981 630.524 893.162 619.825 900.593 608.685 907.266 597.147 913.166 585.251 918.276 573.041 922.58 560.558 926.061 547.844 928.704 534.94 930.491 521.89 931.406 508.735 931.432 495.517 930.555 482.318 928.761 482.626 926.49 495.787 928.279 495.708 928.271 508.848 929.143 508.77 929.141 521.847 929.114 521.769 929.117 534.741 928.207 534.664 928.215 547.491 926.439 547.415 926.452 560.054 923.826 559.979 923.844 572.388 920.383 572.315 920.406 584.453 916.128 584.382 916.156 596.207 911.076 596.138 911.108 607.608 905.243 607.541 905.28 618.614 898.646 618.55 898.688 629.185 891.302 629.123 891.348 639.279 883.225 639.197 883.297 651.096 871.762ZM638.587 866.839 667.165 855.497 659.092 885.164Z"/><path d="M0.637144-0.952356 158.677 104.78 157.403 106.684-0.637144 0.952356ZM161.877 91.7551 177.087 118.475 146.585 114.612Z" transform="matrix(1 0 0 -1 704 829.475)"/><path d="M1272.77 833.176 1262.8 843.079 1253.34 850.888 1243.46 858.047 1233.18 864.551 1222.52 870.386 1211.53 875.536 1200.24 879.987 1188.68 883.726 1176.89 886.736 1164.9 889.003 1152.74 890.513 1140.45 891.251 1128.07 891.203 1115.66 890.356 1115.81 888.069 1128.19 888.914 1128.11 888.911 1140.43 888.959 1140.35 888.962 1152.57 888.228 1152.5 888.234 1164.58 886.733 1164.51 886.745 1176.43 884.491 1176.36 884.506 1188.08 881.514 1188.01 881.534 1199.5 877.818 1199.43 877.842 1210.66 873.417 1210.59 873.446 1221.52 868.326 1221.45 868.358 1232.04 862.558 1231.98 862.595 1242.21 856.129 1242.15 856.17 1251.97 849.053 1251.91 849.098 1261.3 841.345 1261.23 841.416 1271.16 831.55ZM1258.67 826.6 1287.26 815.297 1279.15 844.953Z"/><text font-family="Calibri,Calibri_MSFontService,sans-serif" font-weight="400" font-size="83" transform="matrix(1 0 0 1 418.577 1410)">Stator</text><text font-family="Calibri,Calibri_MSFontService,sans-serif" font-weight="400" font-size="83" transform="matrix(1 0 0 1 1141.77 1410)">Stator</text><text font-family="Calibri,Calibri_MSFontService,sans-serif" font-weight="400" font-size="83" transform="matrix(1 0 0 1 826.58 1410)">Rotor</text><text font-family="Calibri,Calibri_MSFontService,sans-serif" font-weight="400" font-size="83" transform="matrix(1 0 0 1 937.996 622)">Blade</text><text font-family="Calibri,Calibri_MSFontService,sans-serif" font-weight="400" font-size="83" transform="matrix(1 0 0 1 304.234 1173)">Nozzle</text><path d="M879.64 713.049 1036.62 818.727 1035.34 820.628 878.36 714.95ZM1039.86 805.711 1054.99 832.475 1024.5 828.524Z"/><path d="M152.12 0 151.5 0.0262589 150.88 0C77.368 0 16.0351 43.789 1.85044 102.001L0.991949 106.725 0.991808 106.725 0 112.182 0.475446 115.148C1.63015 118.587 4.33324 121 7.48374 121L9.48694 120.491 12.1561 118.793 12.862 118.194C13.5502 117.327 14.1072 116.295 14.492 115.148L14.9312 112.408 14.9313 112.408 14.4921 115.148C14.1072 116.295 13.5503 117.327 12.8621 118.194L12.1562 118.793 21.0359 113.147C57.8923 91.6914 102.638 79.1191 150.88 79.1191L151.5 79.1422 152.12 79.1191C200.362 79.1191 245.108 91.6914 281.964 113.147L290.844 118.793 290.138 118.194C289.45 117.327 288.893 116.295 288.508 115.148L288.069 112.408 288.069 112.408 288.508 115.148C288.893 116.295 289.45 117.327 290.138 118.194L290.844 118.793 293.513 120.491 295.516 121C298.667 121 301.37 118.587 302.524 115.148L303 112.182 302.008 106.725 302.008 106.725 301.149 102.001C286.965 43.789 225.632 0 152.12 0Z" fill="#7C7C7C" fill-rule="evenodd" transform="matrix(-1 0 0 1 1033 1012)"/><path d="M685.42 1117.56C691.195 1110.42 697.724 1101.58 701.18 1109.24 703.193 1142.75 703.843 1131.48 694.171 1155.81 679.264 1193.3 631.228 1298.56 559.467 1331.3 511.169 1352.66 448.951 1341.14 441.871 1304.34 438.202 1285.26 441.394 1240.79 482.034 1228.71 569.803 1202.64 644.379 1162.57 685.42 1117.56Z" fill="#A5A5A5" fill-rule="evenodd"/><path d="M685.42 874.041C691.195 866.904 697.724 858.066 701.18 865.724 703.193 899.234 703.843 887.965 694.171 912.291 679.264 949.785 631.228 1055.05 559.467 1087.78 511.169 1109.14 448.951 1097.63 441.871 1060.82 438.202 1041.75 441.394 997.272 482.034 985.198 569.803 959.122 644.379 919.049 685.42 874.041Z" fill="#A5A5A5" fill-rule="evenodd"/><path d="M1312.05 835.878C1317.82 828.741 1324.35 819.903 1327.81 827.562 1329.82 861.071 1330.47 849.802 1320.8 874.128 1305.89 911.623 1257.85 1016.89 1186.09 1049.62 1137.8 1070.98 1075.58 1059.46 1068.5 1022.66 1064.83 1003.58 1068.02 959.109 1108.66 947.035 1196.43 920.959 1271.01 880.886 1312.05 835.878Z" fill="#A5A5A5" fill-rule="evenodd"/><path d="M1312.05 1077.43C1317.82 1070.3 1324.35 1061.46 1327.81 1069.12 1329.82 1102.63 1330.47 1091.36 1320.8 1115.68 1305.89 1153.18 1257.85 1258.44 1186.09 1291.18 1137.8 1312.53 1075.58 1301.02 1068.5 1264.22 1064.83 1245.14 1068.02 1200.67 1108.66 1188.59 1196.43 1162.52 1271.01 1122.44 1312.05 1077.43Z" fill="#A5A5A5" fill-rule="evenodd"/></g></svg>