<svg width="974" height="839" xmlns="http://www.w3.org/2000/svg" xmlns:xlink="http://www.w3.org/1999/xlink" xml:space="preserve" overflow="hidden"><defs><clipPath id="clip0"><rect x="169" y="732" width="974" height="839"/></clipPath></defs><g clip-path="url(#clip0)" transform="translate(-169 -732)"><path d="M696 1145 1141.62 1145" stroke="#000000" stroke-width="2.29167" stroke-miterlimit="8" fill="none" fill-rule="evenodd"/><path d="M621 935 733.288 935 735.868 935 735.868 935.731 748.345 939.267C782.39 958.848 808 1043.52 808 1145 808 1246.48 782.39 1331.15 748.345 1350.73L735.868 1354.27 735.868 1355 733.289 1355 733.288 1355 733.287 1355 621.002 1355 636.057 1350.73C644.569 1345.84 652.553 1336.87 659.741 1324.6L677.534 1281.3 664.447 1226.74C660.666 1201.62 658.575 1174 658.575 1145 658.575 1116.01 660.666 1088.38 664.447 1063.26L677.144 1010.32 673.83 996.508C660.31 958.505 641.631 935 621 935Z" fill="#A5A5A5" fill-rule="evenodd"/><path d="M621 935 622 935 621 936 621 935Z" fill="#7C7C7C" fill-rule="evenodd"/><path d="M621 1355 622 1356 621 1356 621 1355Z" fill="#7C7C7C" fill-rule="evenodd"/><path d="M546 1145C546 1029.02 579.579 935 621 935 662.421 935 696 1029.02 696 1145 696 1260.98 662.421 1355 621 1355 579.579 1355 546 1260.98 546 1145Z" fill="#7C7C7C" fill-rule="evenodd"/><path d="M169 1145 614.625 1145" stroke="#000000" stroke-width="2.29167" stroke-miterlimit="8" fill="none" fill-rule="evenodd"/><path d="M678.146 732 678.146 883.859 675.854 883.859 675.854 732ZM690.75 879.276 677 906.776 663.25 879.276Z" fill="#4472C4"/><path d="M675.854 1570.78 675.854 1418.92 678.146 1418.92 678.146 1570.78ZM663.25 1423.5 677 1396 690.75 1423.5Z" fill="#4472C4"/><path d="M888 1038.85 1039.86 1038.85 1039.86 1041.15 888 1041.15ZM1035.28 1026.25 1062.78 1040 1035.28 1053.75Z" fill="#4472C4"/><path d="M888 1247.85 1039.86 1247.85 1039.86 1250.15 888 1250.15ZM1035.28 1235.25 1062.78 1249 1035.28 1262.75Z" fill="#4472C4"/></g></svg>