<svg width="1168" height="1048" xmlns="http://www.w3.org/2000/svg" xmlns:xlink="http://www.w3.org/1999/xlink" xml:space="preserve" overflow="hidden"><g transform="translate(-1511 -434)"><text font-family="Calibri,Calibri_MSFontService,sans-serif" font-weight="400" font-size="83" transform="matrix(1 0 0 1 1560.82 1093)">Nozzle</text><path d="M2022 863 2021 865 2021.19 864.122 2022 863Z" fill="#ED7D31" fill-rule="evenodd"/><path d="M2024 1115 2023 1118 2023.19 1116.68 2024 1115Z" fill="#ED7D31" fill-rule="evenodd"/><path d="M1970.39 993.53 1957.56 1006.3 1947.08 1014.93 1936.09 1022.79 1924.64 1029.88 1912.77 1036.17 1900.51 1041.64 1887.91 1046.29 1875.02 1050.08 1861.88 1053.01 1848.53 1055.06 1835.01 1056.2 1821.37 1056.42 1807.66 1055.71 1793.94 1054.05 1794.22 1051.77 1807.89 1053.43 1807.81 1053.42 1821.45 1054.13 1821.37 1054.13 1834.94 1053.91 1834.86 1053.91 1848.3 1052.78 1848.22 1052.79 1861.5 1050.75 1861.42 1050.77 1874.49 1047.85 1874.41 1047.87 1887.23 1044.1 1887.16 1044.12 1899.68 1039.51 1899.61 1039.53 1911.8 1034.09 1911.73 1034.12 1923.54 1027.87 1923.47 1027.91 1934.85 1020.86 1934.79 1020.91 1945.71 1013.09 1945.65 1013.14 1956.06 1004.56 1955.98 1004.63 1968.77 991.906ZM1956.17 987.214 1984.54 975.358 1977 1005.17Z"/><path d="M2616.85 1058.04 2612.62 1062.83 2601.93 1072.7 2590.63 1081.71 2578.78 1089.84 2566.42 1097.07 2553.6 1103.39 2540.38 1108.78 2526.81 1113.22 2512.95 1116.68 2498.84 1119.16 2484.54 1120.62 2470.1 1121.05 2455.58 1120.43 2441.03 1118.74 2426.54 1115.98 2426.97 1113.73 2441.42 1116.49 2441.33 1116.47 2455.8 1118.15 2455.72 1118.14 2470.16 1118.76 2470.07 1118.76 2484.43 1118.33 2484.35 1118.33 2498.56 1116.88 2498.48 1116.89 2512.51 1114.43 2512.43 1114.45 2526.22 1111.01 2526.14 1111.03 2539.63 1106.62 2539.55 1106.65 2552.7 1101.29 2552.62 1101.32 2565.37 1095.04 2565.29 1095.07 2577.59 1087.88 2577.52 1087.92 2589.3 1079.84 2589.24 1079.89 2600.46 1070.94 2600.4 1070.99 2611.02 1061.19 2610.94 1061.27 2615.14 1056.52ZM2602.6 1051.75 2630.99 1039.95 2623.39 1069.75Z"/><path d="M2120.99 841.13 2129.77 841.011 2138.52 841.383 2147.2 842.237 2155.8 843.561 2164.3 845.347 2172.7 847.584 2180.98 850.262 2189.14 853.37 2197.17 856.899 2205.05 860.844 2220.32 869.905 2234.88 880.493 2248.65 892.521 2261.54 905.907 2273.47 920.571 2284.36 936.434 2294.13 953.415 2302.68 971.435 2309.94 990.404 2313.07 1000.25 2315.14 1008.51 2312.91 1009.07 2310.86 1000.84 2310.88 1000.91 2307.77 991.13 2307.79 991.192 2300.56 972.296 2300.59 972.378 2292.08 954.439 2292.12 954.518 2282.4 937.616 2282.45 937.693 2271.61 921.906 2271.67 921.981 2259.79 907.39 2259.86 907.462 2247.03 894.146 2247.1 894.214 2233.41 882.253 2233.49 882.317 2219.01 871.79 2219.1 871.848 2203.92 862.835 2203.99 862.875 2196.17 858.961 2196.22 858.985 2188.25 855.479 2188.3 855.501 2180.2 852.414 2180.25 852.433 2172.02 849.774 2172.08 849.791 2163.74 847.569 2163.8 847.584 2155.36 845.81 2155.42 845.821 2146.88 844.506 2146.95 844.514 2138.33 843.667 2138.39 843.671 2129.71 843.302 2129.77 843.303 2121.02 843.421ZM2326.41 1001.26 2319.14 1031.13 2299.6 1007.39Z"/><path d="M10.3125-3.30613e-05 10.3127 61.0074-10.3123 61.0075-10.3125 3.30613e-05ZM30.9377 50.6948 0.000360892 112.57-30.9373 50.695Z" transform="matrix(1 0 0 -1 2130.5 610.07)"/><text font-family="Calibri,Calibri_MSFontService,sans-serif" font-weight="400" font-size="83" transform="matrix(1 0 0 1 1756.46 1410)">Stator</text><text font-family="Calibri,Calibri_MSFontService,sans-serif" font-weight="400" font-size="83" transform="matrix(1 0 0 1 2099.89 1401)">Rotor</text><text font-family="Calibri,Calibri_MSFontService,sans-serif" font-weight="400" font-size="83" transform="matrix(1 0 0 1 2417.29 1407)">Stator</text><text font-family="Calibri,Calibri_MSFontService,sans-serif" font-weight="400" font-size="83" transform="matrix(1 0 0 1 2264.02 711)">Blade</text><path d="M1994.12 750.251C2000.14 742.866 2006.95 733.722 2010.53 741.628 2012.56 776.246 2013.26 764.602 2003.15 789.754 1987.57 828.521 1937.41 937.369 1862.7 971.326 1812.43 993.486 1747.73 981.707 1740.44 943.697 1736.66 923.995 1740.06 878.037 1782.36 865.485 1873.7 838.376 1951.35 796.831 1994.12 750.251Z" fill="#A5A5A5" fill-rule="evenodd"/><path d="M1994.12 1004.57C2000.14 997.182 2006.95 988.039 2010.53 995.945 2012.56 1030.56 2013.26 1018.92 2003.15 1044.07 1987.57 1082.84 1937.41 1191.69 1862.7 1225.64 1812.43 1247.8 1747.73 1236.02 1740.44 1198.01 1736.66 1178.31 1740.06 1132.35 1782.36 1119.8 1873.7 1092.69 1951.35 1051.15 1994.12 1004.57Z" fill="#A5A5A5" fill-rule="evenodd"/><path d="M2640.22 820.578C2646.24 813.193 2653.05 804.05 2656.63 811.956 2658.66 846.574 2659.36 834.93 2649.25 860.081 2633.68 898.849 2583.51 1007.7 2508.81 1041.65 2458.53 1063.81 2393.83 1052.03 2386.54 1014.02 2382.76 994.323 2386.16 948.365 2428.46 935.812 2519.8 908.704 2597.45 867.159 2640.22 820.578Z" fill="#A5A5A5" fill-rule="evenodd"/><path d="M2640.22 1073.59C2646.24 1066.21 2653.05 1057.07 2656.63 1064.97 2658.66 1099.59 2659.36 1087.95 2649.25 1113.1 2633.68 1151.86 2583.51 1260.71 2508.81 1294.67 2458.53 1316.83 2393.83 1305.05 2386.54 1267.04 2382.76 1247.34 2386.16 1201.38 2428.46 1188.83 2519.8 1161.72 2597.45 1120.17 2640.22 1073.59Z" fill="#A5A5A5" fill-rule="evenodd"/><path d="M293.778 8.23255C301.441 2.56998 310.302-4.60144 311.811 3.94565 305.199 37.9866 308.76 26.8784 292.736 48.741 268.037 82.4387 192.461 175.459 111.672 189.844 57.4704 198.852-2.2864 171.407 0.0673256 132.776 1.2873 112.752 15.9757 69.0707 60.062 67.3919 155.274 63.7662 240.794 42.7591 293.778 8.23255Z" fill="#7C7C7C" fill-rule="evenodd" transform="matrix(0.968805 0.247823 0.247823 -0.968805 2014.57 794.396)"/><path d="M293.778 8.23255C301.441 2.56998 310.302-4.60144 311.811 3.94565 305.199 37.9866 308.76 26.8784 292.736 48.741 268.037 82.4387 192.461 175.459 111.672 189.844 57.4704 198.852-2.2864 171.407 0.0673256 132.776 1.2873 112.752 15.9757 69.0707 60.062 67.3919 155.274 63.7662 240.794 42.7591 293.778 8.23255Z" fill="#7C7C7C" fill-rule="evenodd" transform="matrix(0.968805 0.247823 0.247823 -0.968805 2014.57 1043.27)"/><path d="M293.778 8.23255C301.441 2.56998 310.302-4.60144 311.811 3.94565 305.199 37.9866 308.76 26.8784 292.736 48.741 268.037 82.4387 192.461 175.459 111.672 189.844 57.4704 198.852-2.2864 171.407 0.0673256 132.776 1.2873 112.752 15.9757 69.0707 60.062 67.3919 155.274 63.7662 240.794 42.7591 293.778 8.23255Z" fill="#7C7C7C" fill-rule="evenodd" transform="matrix(0.968805 0.247823 0.247823 -0.968805 2018.98 1289.57)"/></g></svg>