<svg width="893" height="785" xmlns="http://www.w3.org/2000/svg" xmlns:xlink="http://www.w3.org/1999/xlink" xml:space="preserve" overflow="hidden"><g transform="translate(-1241 -1576)"><path d="M0 0 0.000360892 649.606" stroke="#000000" stroke-width="2.29167" stroke-miterlimit="8" stroke-dasharray="9.16667 6.875" fill="none" fill-rule="evenodd" transform="matrix(-1 0 0 1 1320 1682)"/><path d="M0 0 0.000360892 649.606" stroke="#000000" stroke-width="2.29167" stroke-miterlimit="8" stroke-dasharray="9.16667 6.875" fill="none" fill-rule="evenodd" transform="matrix(-1 0 0 1 1616 1684)"/><path d="M3.4375-1.70018e-06 3.43785 706.75-3.43715 706.75-3.4375 1.70018e-06ZM13.7503 702.167 0.000360892 729.667-13.7497 702.167Z" transform="matrix(1 0 0 -1 1269.5 2334.17)"/><path d="M1269.5 2329.06 1982.09 2329.06 1982.09 2335.94 1269.5 2335.94ZM1977.5 2318.75 2005 2332.5 1977.5 2346.25Z"/><path d="M1269.5 1762.5C1269.5 1762.5 1269.5 1762.5 1269.5 1762.5 1269.5 1762.5 1269.5 1762.5 1269.5 1762.5 1269.5 1762.5 1269.5 1762.5 1269.5 1762.5 1269.5 1762.5 1269.5 1762.5 1269.5 1762.5Z" stroke="#172C51" stroke-width="4.58333" stroke-miterlimit="8" fill="#4472C4" fill-rule="evenodd"/><path d="M1269.5 2237.5C1269.5 2237.5 1269.5 2237.5 1269.5 2237.5 1269.5 2237.5 1269.5 2237.5 1269.5 2237.5 1269.5 2237.5 1269.5 2237.5 1269.5 2237.5 1269.5 2237.5 1269.5 2237.5 1269.5 2237.5Z" stroke="#172C51" stroke-width="4.58333" stroke-miterlimit="8" fill="#4472C4" fill-rule="evenodd"/><text font-family="Calibri,Calibri_MSFontService,sans-serif" font-weight="400" font-size="64" transform="matrix(1 0 0 1 1870.46 1951)">Pressure</text><text font-family="Calibri,Calibri_MSFontService,sans-serif" font-weight="400" font-size="64" transform="matrix(1 0 0 1 1869.55 2202)">Velocity</text><path d="M1319.5 1762.5C1319.5 1762.5 1319.5 1762.5 1319.5 1762.5 1319.5 1762.5 1319.5 1762.5 1319.5 1762.5 1319.5 1762.5 1319.5 1762.5 1319.5 1762.5 1319.5 1762.5 1319.5 1762.5 1319.5 1762.5Z" stroke="#172C51" stroke-width="4.58333" stroke-miterlimit="8" fill="#4472C4" fill-rule="evenodd"/><path d="M1269.5 1762.5 1319.34 1762.5" stroke="#4472C4" stroke-width="6.875" stroke-miterlimit="8" fill="none" fill-rule="evenodd"/><path d="M1319.5 1761.5C1354.31 1816.86 1389.13 1872.22 1546.5 1874.5" stroke="#4472C4" stroke-width="6.875" stroke-miterlimit="8" fill="none" fill-rule="evenodd"/><path d="M1319.5 2237.5C1319.5 2237.5 1319.5 2237.5 1319.5 2237.5 1319.5 2237.5 1319.5 2237.5 1319.5 2237.5 1319.5 2237.5 1319.5 2237.5 1319.5 2237.5 1319.5 2237.5 1319.5 2237.5 1319.5 2237.5Z" stroke="#172C51" stroke-width="4.58333" stroke-miterlimit="8" fill="#4472C4" fill-rule="evenodd"/><path d="M0 0 49.8436 0.000360892" stroke="#ED7D31" stroke-width="6.875" stroke-miterlimit="8" fill="none" fill-rule="evenodd" transform="matrix(1 0 0 -1 1269.5 2237.5)"/><path d="M0 0C35.1216 129.826 70.2431 259.652 229 265" stroke="#ED7D31" stroke-width="6.875" stroke-miterlimit="8" fill="none" fill-rule="evenodd" transform="matrix(1 0 0 -1 1321.5 2237.5)"/><path d="M1836 1684 1836 2333.61" stroke="#000000" stroke-width="2.29167" stroke-miterlimit="8" stroke-dasharray="9.16667 6.875" fill="none" fill-rule="evenodd"/><text font-family="Calibri,Calibri_MSFontService,sans-serif" font-weight="400" font-size="55" transform="matrix(1 0 0 1 1402.49 1720)">Stator</text><text font-family="Calibri,Calibri_MSFontService,sans-serif" font-weight="400" font-size="55" transform="matrix(1 0 0 1 1663.5 1723)">Blade</text><path d="M1546.5 1875.5C1546.5 1875.5 1546.5 1875.5 1546.5 1875.5 1546.5 1875.5 1546.5 1875.5 1546.5 1875.5 1546.5 1875.5 1546.5 1875.5 1546.5 1875.5 1546.5 1875.5 1546.5 1875.5 1546.5 1875.5Z" stroke="#172C51" stroke-width="4.58333" stroke-miterlimit="8" fill="#4472C4" fill-rule="evenodd"/><path d="M1615.5 1875.5C1615.5 1875.5 1615.5 1875.5 1615.5 1875.5 1615.5 1875.5 1615.5 1875.5 1615.5 1875.5 1615.5 1875.5 1615.5 1875.5 1615.5 1875.5 1615.5 1875.5 1615.5 1875.5 1615.5 1875.5Z" stroke="#172C51" stroke-width="4.58333" stroke-miterlimit="8" fill="#4472C4" fill-rule="evenodd"/><path d="M1546.5 1875.5 1615.25 1875.5" stroke="#4472C4" stroke-width="6.875" stroke-miterlimit="8" fill="none" fill-rule="evenodd"/><path d="M1615.5 1872.5C1650.16 1927.86 1684.82 1983.22 1841.5 1985.5" stroke="#4472C4" stroke-width="6.875" stroke-miterlimit="8" fill="none" fill-rule="evenodd"/><path d="M1841.5 1985.5 1891.34 1985.5" stroke="#4472C4" stroke-width="6.875" stroke-miterlimit="8" fill="none" fill-rule="evenodd"/><path d="M1836.5 2237.5C1792.18 2107.67 1747.85 1977.85 1547.5 1972.5" stroke="#ED7D31" stroke-width="6.875" stroke-miterlimit="8" fill="none" fill-rule="evenodd"/><path d="M0 0 49.8436 0.000360892" stroke="#ED7D31" stroke-width="6.875" stroke-miterlimit="8" fill="none" fill-rule="evenodd" transform="matrix(1 0 0 -1 1832.5 2237.5)"/></g></svg>