<svg width="837" height="556" xmlns="http://www.w3.org/2000/svg" xmlns:xlink="http://www.w3.org/1999/xlink" xml:space="preserve" overflow="hidden"><g transform="translate(-3279 -1180)"><path d="M0.879279-0.734713 288.963 344.034 287.205 345.504-0.879279 0.734713ZM295.697 332.435 302.779 362.355 274.594 350.069Z" fill="#4472C4" transform="matrix(-1 0 0 1 3609.78 1258)"/><path d="M3307 1619.85 3540.78 1619.85 3540.78 1622.15 3307 1622.15ZM3536.19 1607.25 3563.69 1621 3536.19 1634.75Z" fill="#4472C4"/><path d="M1.13668-0.144567 44.331 339.476 42.0576 339.765-1.13668 0.144567ZM56.2561 333.339 46.0856 362.354 28.9759 336.809Z" fill="#4472C4" transform="matrix(-1 0 0 1 3610.09 1258)"/><path d="M3610.5 1258.5C3610.5 1258.5 3610.5 1258.5 3610.5 1258.5 3610.5 1258.5 3610.5 1258.5 3610.5 1258.5 3610.5 1258.5 3610.5 1258.5 3610.5 1258.5 3610.5 1258.5 3610.5 1258.5 3610.5 1258.5Z" stroke="#172C51" stroke-width="4.58333" stroke-miterlimit="8" fill="#4472C4" fill-rule="evenodd"/><path d="M3307.5 1620.5C3307.5 1620.5 3307.5 1620.5 3307.5 1620.5 3307.5 1620.5 3307.5 1620.5 3307.5 1620.5 3307.5 1620.5 3307.5 1620.5 3307.5 1620.5 3307.5 1620.5 3307.5 1620.5 3307.5 1620.5Z" stroke="#172C51" stroke-width="4.58333" stroke-miterlimit="8" fill="#4472C4" fill-rule="evenodd"/><path d="M3564.5 1620.5C3564.5 1620.5 3564.5 1620.5 3564.5 1620.5 3564.5 1620.5 3564.5 1620.5 3564.5 1620.5 3564.5 1620.5 3564.5 1620.5 3564.5 1620.5 3564.5 1620.5 3564.5 1620.5 3564.5 1620.5Z" stroke="#172C51" stroke-width="4.58333" stroke-miterlimit="8" fill="#4472C4" fill-rule="evenodd"/><path d="M3610.98 1257.4 3820.22 1600.16 3818.27 1601.35 3609.02 1258.6ZM3828.59 1589.68 3831.18 1620.32 3805.12 1604.01Z" fill="#4472C4"/><path d="M3831 1618.85 4064.78 1618.85 4064.78 1621.15 3831 1621.15ZM4060.19 1606.25 4087.69 1620 4060.19 1633.75Z" fill="#4472C4"/><path d="M3610.69 1257.09 4070.31 1605.56 4068.92 1607.38 3609.31 1258.91ZM4074.27 1592.75 4087.88 1620.32 4057.66 1614.66Z" fill="#4472C4"/><path d="M3610.5 1258.5C3610.5 1258.5 3610.5 1258.5 3610.5 1258.5 3610.5 1258.5 3610.5 1258.5 3610.5 1258.5 3610.5 1258.5 3610.5 1258.5 3610.5 1258.5 3610.5 1258.5 3610.5 1258.5 3610.5 1258.5Z" stroke="#172C51" stroke-width="4.58333" stroke-miterlimit="8" fill="#4472C4" fill-rule="evenodd"/><path d="M3831.5 1620.5C3831.5 1620.5 3831.5 1620.5 3831.5 1620.5 3831.5 1620.5 3831.5 1620.5 3831.5 1620.5 3831.5 1620.5 3831.5 1620.5 3831.5 1620.5 3831.5 1620.5 3831.5 1620.5 3831.5 1620.5Z" stroke="#172C51" stroke-width="4.58333" stroke-miterlimit="8" fill="#4472C4" fill-rule="evenodd"/><path d="M4088.5 1620.5C4088.5 1620.5 4088.5 1620.5 4088.5 1620.5 4088.5 1620.5 4088.5 1620.5 4088.5 1620.5 4088.5 1620.5 4088.5 1620.5 4088.5 1620.5 4088.5 1620.5 4088.5 1620.5 4088.5 1620.5Z" stroke="#172C51" stroke-width="4.58333" stroke-miterlimit="8" fill="#4472C4" fill-rule="evenodd"/><text font-family="Calibri,Calibri_MSFontService,sans-serif" font-weight="400" font-size="64" transform="matrix(1 0 0 1 3878.68 1443)">v</text><text font-family="Calibri,Calibri_MSFontService,sans-serif" font-weight="400" font-size="43" transform="matrix(1 0 0 1 3907.9 1458)">in</text><text font-family="Calibri,Calibri_MSFontService,sans-serif" font-weight="400" font-size="64" transform="matrix(1 0 0 1 3628.33 1481)">w</text><text font-family="Calibri,Calibri_MSFontService,sans-serif" font-weight="400" font-size="43" transform="matrix(1 0 0 1 3674.16 1496)">in</text><text font-family="Calibri,Calibri_MSFontService,sans-serif" font-weight="400" font-size="64" transform="matrix(1 0 0 1 3933.44 1680)">u</text><text font-family="Calibri,Calibri_MSFontService,sans-serif" font-weight="400" font-size="55" transform="matrix(1 0 0 1 3396.82 1671)">u</text><text font-family="Calibri,Calibri_MSFontService,sans-serif" font-weight="400" font-size="64" transform="matrix(1 0 0 1 3332.08 1442)">w</text><text font-family="Calibri,Calibri_MSFontService,sans-serif" font-weight="400" font-size="43" transform="matrix(1 0 0 1 3377.32 1457)">out</text><text font-family="Calibri,Calibri_MSFontService,sans-serif" font-weight="400" font-size="55" transform="matrix(1 0 0 1 3576.44 1577)">v</text><text font-family="Calibri,Calibri_MSFontService,sans-serif" font-weight="400" font-size="37" transform="matrix(1 0 0 1 3600.57 1590)">out</text><path d="M3610 1180 3610 1338.48" stroke="#7C7C7C" stroke-width="2.29167" stroke-miterlimit="8" stroke-dasharray="9.16667 6.875" fill="none" fill-rule="evenodd"/></g></svg>