<svg width="632" height="947" xmlns="http://www.w3.org/2000/svg" xmlns:xlink="http://www.w3.org/1999/xlink" xml:space="preserve" overflow="hidden"><g transform="translate(-3213 -140)"><path d="M180.235 0 179.5 0.0342885 178.765 0C91.6671 0 18.9986 57.179 2.19244 133.191L1.17528 139.36 1.17511 139.36 0 146.486 0.563317 150.359C1.93143 154.85 5.1341 158 8.86688 158L11.2403 157.335 14.4028 155.119 15.2392 154.336C16.0546 153.204 16.7144 151.856 17.1704 150.359L17.6908 146.781 17.6909 146.781 17.1705 150.359C16.7145 151.856 16.0546 153.204 15.2393 154.336L14.4029 155.119 24.9238 147.746C68.5919 119.729 121.607 103.313 178.765 103.313L179.5 103.343 180.235 103.313C237.393 103.313 290.408 119.729 334.076 147.746L344.597 155.119 343.761 154.336C342.945 153.204 342.285 151.856 341.829 150.359L341.309 146.781 341.309 146.781 341.829 150.359C342.285 151.856 342.945 153.204 343.761 154.336L344.597 155.119 347.76 157.335 350.133 158C353.866 158 357.068 154.85 358.437 150.359L359 146.486 357.825 139.36 357.825 139.36 356.807 133.191C340.001 57.179 267.333 0 180.235 0Z" fill="#7C7C7C" fill-rule="evenodd" transform="matrix(-6.12323e-17 -1 -1 6.12323e-17 3668 744)"/><path d="M3668 562.854 3793.49 562.855 3793.49 565.146 3668 565.146ZM3788.91 550.25 3816.41 564 3788.91 577.75Z" fill="#4472C4"/><path d="M0.879933-0.733928 180.545 214.673 178.785 216.141-0.879933 0.733928ZM187.289 203.08 194.344 233.006 166.17 220.695Z" fill="#4472C4" transform="matrix(-1 0 0 1 3490.34 755)"/><path d="M3296 986.854 3437.58 986.854 3437.58 989.146 3296 989.146ZM3433 974.25 3460.5 988 3433 1001.75Z" fill="#4472C4"/><path d="M1.13655-0.145576 28.0697 210.129 25.7966 210.42-1.13655 0.145576ZM39.9895 203.981 29.8447 233.005 12.7123 207.475Z" fill="#4472C4" transform="matrix(-1 0 0 1 3489.84 755)"/><path d="M3490.5 755.5C3490.5 755.5 3490.5 755.5 3490.5 755.5 3490.5 755.5 3490.5 755.5 3490.5 755.5 3490.5 755.5 3490.5 755.5 3490.5 755.5 3490.5 755.5 3490.5 755.5 3490.5 755.5Z" stroke="#172C51" stroke-width="4.58333" stroke-miterlimit="8" fill="#4472C4" fill-rule="evenodd"/><path d="M3296.5 988.5C3296.5 988.5 3296.5 988.5 3296.5 988.5 3296.5 988.5 3296.5 988.5 3296.5 988.5 3296.5 988.5 3296.5 988.5 3296.5 988.5 3296.5 988.5 3296.5 988.5 3296.5 988.5Z" stroke="#172C51" stroke-width="4.58333" stroke-miterlimit="8" fill="#4472C4" fill-rule="evenodd"/><path d="M3460.5 988.5C3460.5 988.5 3460.5 988.5 3460.5 988.5 3460.5 988.5 3460.5 988.5 3460.5 988.5 3460.5 988.5 3460.5 988.5 3460.5 988.5 3460.5 988.5 3460.5 988.5 3460.5 988.5Z" stroke="#172C51" stroke-width="4.58333" stroke-miterlimit="8" fill="#4472C4" fill-rule="evenodd"/><text font-family="Calibri,Calibri_MSFontService,sans-serif" font-weight="400" font-size="55" transform="matrix(1 0 0 1 3704.26 537)">u</text><path d="M3348.98 141.401 3475.62 348.099 3473.67 349.297 3347.02 142.599ZM3483.98 337.606 3486.62 368.238 3460.53 351.973Z" fill="#4472C4"/><path d="M3487 367.854 3628.58 367.854 3628.58 370.146 3487 370.146ZM3624 355.25 3651.5 369 3624 382.75Z" fill="#4472C4"/><path d="M3348.69 141.082 3633.44 353.612 3632.07 355.449 3347.31 142.918ZM3637.3 340.77 3651.12 368.238 3620.85 362.808Z" fill="#4472C4"/><path d="M3348.5 142.5C3348.5 142.5 3348.5 142.5 3348.5 142.5 3348.5 142.5 3348.5 142.5 3348.5 142.5 3348.5 142.5 3348.5 142.501 3348.5 142.501 3348.5 142.501 3348.5 142.5 3348.5 142.5Z" stroke="#172C51" stroke-width="4.58333" stroke-miterlimit="8" fill="#4472C4" fill-rule="evenodd"/><path d="M3487.5 369.5C3487.5 369.5 3487.5 369.5 3487.5 369.5 3487.5 369.5 3487.5 369.5 3487.5 369.5 3487.5 369.5 3487.5 369.5 3487.5 369.5 3487.5 369.5 3487.5 369.5 3487.5 369.5Z" stroke="#172C51" stroke-width="4.58333" stroke-miterlimit="8" fill="#4472C4" fill-rule="evenodd"/><path d="M3651.5 369.5C3651.5 369.5 3651.5 369.5 3651.5 369.5 3651.5 369.5 3651.5 369.5 3651.5 369.5 3651.5 369.5 3651.5 369.5 3651.5 369.5 3651.5 369.5 3651.5 369.5 3651.5 369.5Z" stroke="#172C51" stroke-width="4.58333" stroke-miterlimit="8" fill="#4472C4" fill-rule="evenodd"/><text font-family="Calibri,Calibri_MSFontService,sans-serif" font-weight="400" font-size="64" transform="matrix(1 0 0 1 3553.19 276)">v</text><text font-family="Calibri,Calibri_MSFontService,sans-serif" font-weight="400" font-size="43" transform="matrix(1 0 0 1 3582.41 291)">in</text><text font-family="Calibri,Calibri_MSFontService,sans-serif" font-weight="400" font-size="64" transform="matrix(1 0 0 1 3313.66 274)">w</text><text font-family="Calibri,Calibri_MSFontService,sans-serif" font-weight="400" font-size="43" transform="matrix(1 0 0 1 3359.49 289)">in</text><text font-family="Calibri,Calibri_MSFontService,sans-serif" font-weight="400" font-size="64" transform="matrix(1 0 0 1 3519.34 349)">u</text><text font-family="Calibri,Calibri_MSFontService,sans-serif" font-weight="400" font-size="55" transform="matrix(1 0 0 1 3363.76 1039)">u</text><text font-family="Calibri,Calibri_MSFontService,sans-serif" font-weight="400" font-size="64" transform="matrix(1 0 0 1 3251.7 895)">w</text><text font-family="Calibri,Calibri_MSFontService,sans-serif" font-weight="400" font-size="43" transform="matrix(1 0 0 1 3296.94 910)">out</text><text font-family="Calibri,Calibri_MSFontService,sans-serif" font-weight="400" font-size="55" transform="matrix(1 0 0 1 3483.03 886)">v</text><text font-family="Calibri,Calibri_MSFontService,sans-serif" font-weight="400" font-size="37" transform="matrix(1 0 0 1 3507.16 899)">out</text></g></svg>