<svg width="2959" height="1434" xmlns="http://www.w3.org/2000/svg" xmlns:xlink="http://www.w3.org/1999/xlink" xml:space="preserve" overflow="hidden"><g transform="translate(-783 -935)"><path d="M3105.19 2099 3105.19 1946 1222 1946 1222 1323 1286.94 1323 1286.94 1170 1416.81 1170 1416.81 1323 3300 1323 3300 1946 3235.06 1946 3235.06 2099" stroke="#172C51" stroke-width="13.75" stroke-miterlimit="8" fill="#B4C7E7" fill-rule="evenodd"/><path d="M1157 1170 1157 1323 1222 1323 1222 1946 935.954 1946C878.542 1946 832 1899.51 832 1842.16L832 1426.84C832 1369.49 878.542 1323 935.954 1323L1027 1323 1027 1170" stroke="#172C51" stroke-width="13.75" stroke-miterlimit="8" fill="#DAE3F3" fill-rule="evenodd"/><path d="M3365 2099 3365 1946 3300 1946 3300 1323 3586.05 1323C3643.46 1323 3690 1369.49 3690 1426.84L3690 1842.16C3690 1899.51 3643.46 1946 3586.05 1946L3495 1946 3495 2099" stroke="#172C51" stroke-width="13.75" stroke-miterlimit="8" fill="#DAE3F3" fill-rule="evenodd"/><rect x="1159.5" y="1396.5" width="2209" height="38.9999" stroke="#172C51" stroke-width="4.58333" stroke-miterlimit="8" fill="#DAE3F3"/><rect x="1159.5" y="1507.5" width="2209" height="39.0002" stroke="#172C51" stroke-width="4.58333" stroke-miterlimit="8" fill="#DAE3F3"/><rect x="1159.5" y="1618.5" width="2209" height="39.0002" stroke="#172C51" stroke-width="4.58333" stroke-miterlimit="8" fill="#DAE3F3"/><rect x="1159.5" y="1728.5" width="2209" height="39.0002" stroke="#172C51" stroke-width="4.58333" stroke-miterlimit="8" fill="#DAE3F3"/><rect x="1159.5" y="1839.5" width="2209" height="39.0002" stroke="#172C51" stroke-width="4.58333" stroke-miterlimit="8" fill="#DAE3F3"/><rect x="1151" y="1365" width="13.0001" height="544" fill="#DAE3F3"/><rect x="3363" y="1365" width="13" height="544" fill="#DAE3F3"/><path d="M1637 1321 1637 1788.72" stroke="#000000" stroke-width="10.3125" stroke-miterlimit="8" fill="none" fill-rule="evenodd"/><path d="M2468 1321 2468 1788.72" stroke="#000000" stroke-width="10.3125" stroke-miterlimit="8" fill="none" fill-rule="evenodd"/><path d="M2883 1473 2883 1940.72" stroke="#000000" stroke-width="10.3125" stroke-miterlimit="8" fill="none" fill-rule="evenodd"/><path d="M2052 1473 2052 1940.72" stroke="#000000" stroke-width="10.3125" stroke-miterlimit="8" fill="none" fill-rule="evenodd"/><path d="M1.14583-3.18287e-06 1.14613 107.005-1.14554 107.005-1.14583 3.18287e-06ZM13.7503 102.421 0.000360892 129.921-13.7497 102.421Z" transform="matrix(1 0 0 -1 1092 1317.92)"/><path d="M3172.15 1952 3172.15 2059 3169.85 2059 3169.85 1952ZM3184.75 2054.42 3171 2081.92 3157.25 2054.42Z"/><path d="M1202.9 1417.64 1192.38 1417.27 1181.91 1416.18 1171.6 1414.43 1161.54 1412.06 1151.81 1409.12 1142.49 1405.65 1133.66 1401.71 1125.41 1397.33 1117.81 1392.57 1110.94 1387.47 1104.82 1382.01 1099.22 1373.64 1101.12 1372.36 1106.64 1380.61 1106.45 1380.39 1112.42 1385.72 1112.34 1385.66 1119.14 1390.7 1119.06 1390.65 1126.59 1395.37 1126.52 1395.33 1134.7 1399.67 1134.63 1399.63 1143.39 1403.54 1143.32 1403.52 1152.58 1406.96 1152.51 1406.93 1162.17 1409.86 1162.1 1409.84 1172.09 1412.19 1172.02 1412.18 1182.25 1413.92 1182.18 1413.91 1192.58 1414.98 1192.5 1414.98 1202.98 1415.35ZM1089.4 1382.7 1091 1352 1114.61 1371.7Z"/><path d="M1202.9 1528.64 1192.38 1528.27 1181.91 1527.18 1171.6 1525.43 1161.54 1523.06 1151.81 1520.12 1142.49 1516.65 1133.66 1512.71 1125.41 1508.33 1117.81 1503.57 1110.94 1498.47 1104.82 1493.01 1099.22 1484.64 1101.12 1483.36 1106.64 1491.61 1106.45 1491.39 1112.42 1496.72 1112.34 1496.66 1119.14 1501.7 1119.06 1501.65 1126.59 1506.37 1126.52 1506.33 1134.7 1510.67 1134.63 1510.63 1143.39 1514.54 1143.32 1514.52 1152.58 1517.96 1152.51 1517.93 1162.17 1520.86 1162.1 1520.84 1172.09 1523.19 1172.02 1523.18 1182.25 1524.92 1182.18 1524.91 1192.58 1525.98 1192.5 1525.98 1202.98 1526.35ZM1089.4 1493.7 1091 1463 1114.61 1482.7Z"/><path d="M1202.9 1639.64 1192.38 1639.27 1181.91 1638.18 1171.6 1636.43 1161.54 1634.06 1151.81 1631.12 1142.49 1627.65 1133.66 1623.71 1125.41 1619.33 1117.81 1614.57 1110.94 1609.47 1104.82 1604.01 1099.22 1595.64 1101.12 1594.36 1106.64 1602.61 1106.45 1602.39 1112.42 1607.72 1112.34 1607.66 1119.14 1612.7 1119.06 1612.65 1126.59 1617.37 1126.52 1617.33 1134.7 1621.67 1134.63 1621.63 1143.39 1625.54 1143.32 1625.52 1152.58 1628.96 1152.51 1628.93 1162.17 1631.86 1162.1 1631.84 1172.09 1634.19 1172.02 1634.18 1182.25 1635.92 1182.18 1635.91 1192.58 1636.98 1192.5 1636.98 1202.98 1637.35ZM1089.4 1604.7 1091 1574 1114.61 1593.7Z"/><path d="M1202.9 1750.64 1192.38 1750.27 1181.91 1749.18 1171.6 1747.43 1161.54 1745.06 1151.81 1742.12 1142.49 1738.65 1133.66 1734.71 1125.41 1730.33 1117.81 1725.57 1110.94 1720.47 1104.82 1715.01 1099.22 1706.64 1101.12 1705.36 1106.64 1713.61 1106.45 1713.39 1112.42 1718.72 1112.34 1718.66 1119.14 1723.7 1119.06 1723.65 1126.59 1728.37 1126.52 1728.33 1134.7 1732.67 1134.63 1732.63 1143.39 1736.54 1143.32 1736.52 1152.58 1739.96 1152.51 1739.93 1162.17 1742.86 1162.1 1742.84 1172.09 1745.19 1172.02 1745.18 1182.25 1746.92 1182.18 1746.91 1192.58 1747.98 1192.5 1747.98 1202.98 1748.35ZM1089.4 1715.7 1091 1685 1114.61 1704.7Z"/><path d="M1202.9 1861.64 1192.38 1861.27 1181.91 1860.18 1171.6 1858.43 1161.54 1856.06 1151.81 1853.12 1142.49 1849.65 1133.66 1845.71 1125.41 1841.33 1117.81 1836.57 1110.94 1831.47 1104.82 1826.01 1099.22 1817.64 1101.12 1816.36 1106.64 1824.61 1106.45 1824.39 1112.42 1829.72 1112.34 1829.66 1119.14 1834.7 1119.06 1834.65 1126.59 1839.37 1126.52 1839.33 1134.7 1843.67 1134.63 1843.63 1143.39 1847.54 1143.32 1847.52 1152.58 1850.96 1152.51 1850.93 1162.17 1853.86 1162.1 1853.84 1172.09 1856.19 1172.02 1856.18 1182.25 1857.92 1182.18 1857.91 1192.58 1858.99 1192.5 1858.98 1202.98 1859.35ZM1089.4 1826.7 1091 1796 1114.61 1815.7Z"/><path d="M1431.14 1706.75 1431.44 1711.58 1431.43 1711.44 1432.32 1716.26 1432.29 1716.14 1433.75 1720.93 1433.71 1720.82 1435.72 1725.59 1435.68 1725.5 1438.23 1730.23 1438.18 1730.14 1441.24 1734.83 1441.19 1734.76 1444.74 1739.39 1444.69 1739.33 1448.72 1743.89 1448.67 1743.84 1453.16 1748.33 1453.12 1748.28 1458.04 1752.68 1458 1752.65 1463.34 1756.95 1463.3 1756.92 1469.04 1761.13 1469 1761.1 1475.13 1765.19 1475.09 1765.17 1481.58 1769.13 1481.52 1769.1 1495.5 1776.63 1495.44 1776.6 1510.64 1783.53 1510.57 1783.5 1526.84 1789.75 1526.78 1789.73 1543.95 1795.22 1543.89 1795.21 1561.83 1799.87 1561.77 1799.86 1580.32 1803.62 1580.26 1803.61 1599.27 1806.39 1599.2 1806.38 1618.51 1808.1 1618.45 1808.1 1637.91 1808.69 1637.84 1808.69 1657.3 1808.08 1657.23 1808.09 1676.54 1806.32 1676.48 1806.32 1695.48 1803.47 1695.42 1803.48 1713.97 1799.62 1713.91 1799.63 1731.85 1794.84 1731.79 1794.86 1748.96 1789.21 1748.9 1789.23 1765.17 1782.81 1765.1 1782.84 1780.3 1775.72 1780.23 1775.76 1794.21 1768.02 1794.16 1768.05 1800.65 1763.97 1800.61 1764 1806.73 1759.8 1806.69 1759.82 1812.44 1755.51 1812.39 1755.54 1817.74 1751.11 1817.69 1751.15 1822.62 1746.63 1822.57 1746.67 1827.06 1742.06 1827.02 1742.11 1831.05 1737.43 1831 1737.49 1834.55 1732.73 1834.43 1732.95 1837.83 1725.39 1839.92 1726.33 1836.46 1734 1832.81 1738.89 1828.73 1743.63 1824.19 1748.29 1819.22 1752.86 1813.84 1757.32 1808.05 1761.67 1801.89 1765.9 1795.35 1770.01 1781.31 1777.78 1766.04 1784.93 1749.71 1791.38 1732.47 1797.04 1714.47 1801.85 1695.86 1805.73 1676.78 1808.59 1657.41 1810.37 1637.87 1810.98 1618.34 1810.39 1598.97 1808.66 1579.9 1805.87 1561.29 1802.1 1543.29 1797.42 1526.05 1791.9 1509.72 1785.63 1494.45 1778.67 1480.41 1771.11 1473.87 1767.11 1467.71 1762.99 1461.92 1758.76 1456.54 1754.41 1451.56 1749.97 1447.03 1745.43 1442.95 1740.81 1439.34 1736.12 1436.23 1731.36 1433.63 1726.53 1431.58 1721.66 1430.08 1716.74 1429.16 1711.79 1428.86 1706.9ZM1824.38 1726.11 1845.75 1704 1850.61 1734.36Z"/><path d="M0.0919046-1.14214 2.55775-0.943723 5.13082-0.3301 10.0637 1.97987 14.8757 5.67317 19.5153 10.6096 23.9683 16.6878 28.2123 23.8137 32.2188 31.8943 35.9558 40.8359 39.3892 50.5447 42.4836 60.926 45.203 71.8846 47.5109 83.3252 49.3725 95.1634 50.6661 109.003 48.3844 109.217 47.0941 95.4125 47.103 95.4839 45.2509 83.7056 45.2597 83.7542 42.9616 72.3626 42.9727 72.412 40.2658 61.5038 40.2798 61.5551 37.2012 51.2269 37.219 51.2817 33.806 41.6302 33.829 41.69 30.1187 32.812 30.1493 32.8792 26.1788 24.8712 26.2209 24.9485 22.0273 17.9073 22.0875 17.9982 17.7081 12.0204 17.7975 12.128 13.2695 7.31033 13.4068 7.43456 8.76723 3.87368 8.97894 4.0024 4.26509 1.79498 4.48522 1.87187 2.11203 1.30591 2.28593 1.33348-0.0919046 1.14214ZM63.0122 103.802 50.7436 131.994 35.5511 105.264Z" transform="matrix(-1.83697e-16 -1 -1 1.83697e-16 3427.99 1466.74)"/><path d="M0.0919046-1.14214 2.55775-0.943723 5.13082-0.3301 10.0637 1.97987 14.8757 5.67317 19.5153 10.6096 23.9683 16.6878 28.2123 23.8137 32.2188 31.8943 35.9558 40.8359 39.3892 50.5447 42.4836 60.926 45.203 71.8846 47.5109 83.3252 49.3725 95.1634 50.6661 109.003 48.3844 109.217 47.0941 95.4125 47.103 95.4839 45.2509 83.7056 45.2597 83.7542 42.9616 72.3626 42.9727 72.412 40.2658 61.5038 40.2798 61.5551 37.2012 51.2269 37.219 51.2817 33.806 41.6302 33.829 41.69 30.1187 32.812 30.1493 32.8792 26.1788 24.8712 26.2209 24.9485 22.0273 17.9073 22.0875 17.9982 17.7081 12.0204 17.7975 12.128 13.2695 7.31033 13.4068 7.43456 8.76723 3.87368 8.97894 4.0024 4.26509 1.79498 4.48522 1.87187 2.11203 1.30591 2.28593 1.33348-0.0919046 1.14214ZM63.0122 103.802 50.7436 131.994 35.5511 105.264Z" transform="matrix(-1.83697e-16 -1 -1 1.83697e-16 3427.99 1576.74)"/><path d="M0.0919046-1.14214 2.55775-0.943723 5.13082-0.3301 10.0637 1.97987 14.8757 5.67317 19.5153 10.6096 23.9683 16.6878 28.2123 23.8137 32.2188 31.8943 35.9558 40.8359 39.3892 50.5447 42.4836 60.926 45.203 71.8846 47.5109 83.3252 49.3725 95.1634 50.6661 109.003 48.3844 109.217 47.0941 95.4125 47.103 95.4839 45.2509 83.7056 45.2597 83.7542 42.9616 72.3626 42.9727 72.412 40.2658 61.5038 40.2798 61.5551 37.2012 51.2269 37.219 51.2817 33.806 41.6302 33.829 41.69 30.1187 32.812 30.1493 32.8792 26.1788 24.8712 26.2209 24.9485 22.0273 17.9073 22.0875 17.9982 17.7081 12.0204 17.7975 12.128 13.2695 7.31033 13.4068 7.43456 8.76723 3.87368 8.97894 4.0024 4.26509 1.79498 4.48522 1.87187 2.11203 1.30591 2.28593 1.33348-0.0919046 1.14214ZM63.0122 103.802 50.7436 131.994 35.5511 105.264Z" transform="matrix(-1.83697e-16 -1 -1 1.83697e-16 3427.99 1685.74)"/><path d="M0.0919046-1.14214 2.55775-0.943723 5.13082-0.3301 10.0637 1.97987 14.8757 5.67317 19.5153 10.6096 23.9683 16.6878 28.2123 23.8137 32.2188 31.8943 35.9558 40.8359 39.3892 50.5447 42.4836 60.926 45.203 71.8846 47.5109 83.3252 49.3725 95.1634 50.6661 109.003 48.3844 109.217 47.0941 95.4125 47.103 95.4839 45.2509 83.7056 45.2597 83.7542 42.9616 72.3626 42.9727 72.412 40.2658 61.5038 40.2798 61.5551 37.2012 51.2269 37.219 51.2817 33.806 41.6302 33.829 41.69 30.1187 32.812 30.1493 32.8792 26.1788 24.8712 26.2209 24.9485 22.0273 17.9073 22.0875 17.9982 17.7081 12.0204 17.7975 12.128 13.2695 7.31033 13.4068 7.43456 8.76723 3.87368 8.97894 4.0024 4.26509 1.79498 4.48522 1.87187 2.11203 1.30591 2.28593 1.33348-0.0919046 1.14214ZM63.0122 103.802 50.7436 131.994 35.5511 105.264Z" transform="matrix(-1.83697e-16 -1 -1 1.83697e-16 3427.99 1796.74)"/><path d="M0.0919046-1.14214 2.55775-0.943723 5.13082-0.3301 10.0637 1.97987 14.8757 5.67317 19.5153 10.6096 23.9683 16.6878 28.2123 23.8137 32.2188 31.8943 35.9558 40.8359 39.3892 50.5447 42.4836 60.926 45.203 71.8846 47.5109 83.3252 49.3725 95.1634 50.6661 109.003 48.3844 109.217 47.0941 95.4125 47.103 95.4839 45.2509 83.7056 45.2597 83.7542 42.9616 72.3626 42.9727 72.412 40.2658 61.5038 40.2798 61.5551 37.2012 51.2269 37.219 51.2817 33.806 41.6302 33.829 41.69 30.1187 32.812 30.1493 32.8792 26.1788 24.8712 26.2209 24.9485 22.0273 17.9073 22.0875 17.9982 17.7081 12.0204 17.7975 12.128 13.2695 7.31033 13.4068 7.43456 8.76723 3.87368 8.97894 4.0024 4.26509 1.79498 4.48522 1.87187 2.11203 1.30591 2.28593 1.33348-0.0919046 1.14214ZM63.0122 103.802 50.7436 131.994 35.5511 105.264Z" transform="matrix(-1.83697e-16 -1 -1 1.83697e-16 3427.99 1907.74)"/><path d="M1.14583-3.18287e-06 1.14613 107.005-1.14554 107.005-1.14583 3.18287e-06ZM13.7503 102.421 0.000360892 129.921-13.7497 102.421Z" transform="matrix(1 0 0 -1 3429 2081.92)"/><path d="M1350.15 1188 1350.15 1295 1347.85 1295 1347.85 1188ZM1362.75 1290.42 1349 1317.92 1335.25 1290.42Z"/><path d="M2262.14 1706.75 2262.44 1711.58 2262.43 1711.44 2263.32 1716.26 2263.29 1716.14 2264.75 1720.93 2264.71 1720.82 2266.72 1725.59 2266.68 1725.5 2269.22 1730.23 2269.18 1730.14 2272.24 1734.83 2272.19 1734.76 2275.74 1739.39 2275.69 1739.33 2279.72 1743.89 2279.67 1743.84 2284.16 1748.33 2284.12 1748.28 2289.04 1752.68 2289 1752.65 2294.34 1756.95 2294.3 1756.92 2300.04 1761.13 2300 1761.1 2306.13 1765.19 2306.09 1765.17 2312.58 1769.13 2312.52 1769.1 2326.5 1776.63 2326.44 1776.6 2341.64 1783.53 2341.57 1783.5 2357.84 1789.75 2357.77 1789.73 2374.95 1795.22 2374.89 1795.21 2392.83 1799.87 2392.77 1799.86 2411.32 1803.62 2411.26 1803.61 2430.27 1806.39 2430.2 1806.38 2449.51 1808.1 2449.45 1808.1 2468.91 1808.69 2468.84 1808.69 2488.3 1808.08 2488.23 1808.09 2507.54 1806.32 2507.48 1806.32 2526.48 1803.47 2526.42 1803.48 2544.97 1799.62 2544.91 1799.63 2562.85 1794.84 2562.79 1794.86 2579.96 1789.21 2579.9 1789.23 2596.17 1782.81 2596.1 1782.84 2611.3 1775.72 2611.23 1775.76 2625.21 1768.02 2625.16 1768.05 2631.65 1763.97 2631.61 1764 2637.73 1759.8 2637.69 1759.82 2643.44 1755.51 2643.39 1755.54 2648.74 1751.11 2648.69 1751.15 2653.62 1746.63 2653.57 1746.67 2658.06 1742.06 2658.01 1742.11 2662.05 1737.43 2662 1737.49 2665.55 1732.73 2665.43 1732.95 2668.83 1725.39 2670.92 1726.33 2667.46 1734 2663.81 1738.89 2659.73 1743.63 2655.19 1748.29 2650.22 1752.86 2644.83 1757.32 2639.05 1761.67 2632.88 1765.9 2626.35 1770.01 2612.31 1777.78 2597.04 1784.93 2580.71 1791.38 2563.47 1797.04 2545.47 1801.85 2526.86 1805.73 2507.78 1808.59 2488.41 1810.37 2468.87 1810.98 2449.34 1810.39 2429.97 1808.66 2410.9 1805.87 2392.29 1802.1 2374.29 1797.42 2357.05 1791.9 2340.72 1785.63 2325.45 1778.67 2311.41 1771.11 2304.87 1767.11 2298.71 1762.99 2292.92 1758.76 2287.54 1754.41 2282.56 1749.97 2278.03 1745.43 2273.95 1740.81 2270.34 1736.12 2267.23 1731.36 2264.63 1726.53 2262.58 1721.66 2261.08 1716.74 2260.16 1711.79 2259.86 1706.9ZM2655.38 1726.11 2676.75 1704 2681.61 1734.36Z"/><path d="M0.0652237 1.14398-5.2199 1.44531-5.09422 1.43115-10.369 2.32245-10.2527 2.29652-15.5069 3.75877-15.4018 3.72398-20.625 5.73814-20.5318 5.69737-25.7137 8.24441-25.632 8.20009-30.7623 11.261-30.6913 11.215-35.7596 14.7707-35.6981 14.7244-40.6941 18.7559-40.6408 18.7102-45.5542 23.1984-45.5081 23.1538-50.3285 28.0798-50.2884 28.0366-55.0056 33.3813-54.9706 33.3396-59.5742 39.0839-59.5434 39.0438-64.0232 45.1688-63.9961 45.1301-68.3415 51.6166-68.3065 51.561-76.5535 65.5428-76.5152 65.4723-84.1013 80.6721-84.0703 80.6047-90.9129 96.8702-90.8877 96.8047-96.9042 113.984-96.8836 113.919-101.991 131.859-101.975 131.794-106.091 150.343-106.079 150.276-109.121 169.282-109.112 169.212-110.999 188.523-110.994 188.449-111.641 207.912-111.641 207.835-110.978 227.298-110.983 227.223-109.049 246.533-109.059 246.462-105.94 265.468-105.953 265.399-101.733 283.949-101.751 283.882-96.515 301.822-96.5365 301.756-90.3693 318.935-90.3955 318.868-83.3815 335.134-83.4136 335.066-75.6375 350.266-75.6771 350.195-67.2236 364.176-67.2595 364.121-62.8052 370.607-62.833 370.568-58.2411 376.693-58.2725 376.653-53.5536 382.398-53.5892 382.356-48.7539 387.701-48.7946 387.658-43.8534 392.584-43.9001 392.54-38.8636 397.028-38.9172 396.984-33.796 401.015-33.8576 400.97-28.6624 404.525-28.7331 404.481-23.4744 407.542-23.7422 407.428-19.0123 408.751-19.6295 410.958-24.5006 409.596-29.9221 406.44-35.1835 402.839-40.3621 398.763-45.4486 394.23-50.4335 389.26-55.307 383.873-60.0594 378.088-64.6809 371.924-69.1675 365.39-77.6592 351.345-85.471 336.076-92.5141 319.743-98.7052 302.497-103.96 284.491-108.196 265.874-111.326 246.797-113.267 227.413-113.933 207.874-113.283 188.336-111.39 168.954-108.336 149.88-104.205 131.264-99.0784 113.258-93.0389 96.014-86.1683 79.6819-78.5478 64.413-70.2637 50.3684-65.8868 43.835-61.3783 37.6705-56.7418 31.8852-51.9871 26.4981-47.1235 21.5281-42.1605 16.9945-37.1072 12.9168-31.9728 9.31466-26.7663 6.20827-21.497 3.61826-16.1747 1.56586-10.8097 0.0727595-5.41359-0.839039-0.0652237-1.14398ZM-20.2141 395.389 2.82507 415.748-27.286 421.964Z" transform="matrix(1.83697e-16 1 1 -1.83697e-16 1846 1567)"/><path d="M0.0652237 1.14398-5.2199 1.44531-5.09422 1.43115-10.369 2.32245-10.2527 2.29652-15.5069 3.75877-15.4018 3.72398-20.625 5.73814-20.5318 5.69737-25.7137 8.24441-25.632 8.20009-30.7623 11.261-30.6913 11.215-35.7596 14.7707-35.6981 14.7244-40.6941 18.7559-40.6408 18.7102-45.5542 23.1984-45.5081 23.1538-50.3285 28.0798-50.2884 28.0366-55.0056 33.3813-54.9706 33.3396-59.5742 39.0839-59.5434 39.0438-64.0232 45.1688-63.9961 45.1301-68.3415 51.6166-68.3065 51.561-76.5535 65.5428-76.5152 65.4723-84.1013 80.6721-84.0703 80.6047-90.9129 96.8702-90.8877 96.8047-96.9042 113.984-96.8836 113.919-101.991 131.859-101.975 131.794-106.091 150.343-106.079 150.276-109.121 169.282-109.112 169.212-110.999 188.523-110.994 188.449-111.641 207.912-111.641 207.835-110.978 227.298-110.983 227.223-109.049 246.533-109.059 246.462-105.94 265.468-105.953 265.399-101.733 283.949-101.751 283.882-96.515 301.822-96.5365 301.756-90.3693 318.935-90.3955 318.868-83.3815 335.134-83.4136 335.066-75.6375 350.266-75.6771 350.195-67.2236 364.176-67.2595 364.121-62.8052 370.607-62.833 370.568-58.2411 376.693-58.2725 376.653-53.5536 382.398-53.5892 382.356-48.7539 387.701-48.7946 387.658-43.8534 392.584-43.9001 392.54-38.8636 397.028-38.9172 396.984-33.796 401.015-33.8576 400.97-28.6624 404.525-28.7331 404.481-23.4744 407.542-23.7422 407.428-19.0123 408.751-19.6295 410.958-24.5006 409.596-29.9221 406.44-35.1835 402.839-40.3621 398.763-45.4486 394.23-50.4335 389.26-55.307 383.873-60.0594 378.088-64.6809 371.924-69.1675 365.39-77.6592 351.345-85.471 336.076-92.5141 319.743-98.7052 302.497-103.96 284.491-108.196 265.874-111.326 246.797-113.267 227.413-113.933 207.874-113.283 188.336-111.39 168.954-108.336 149.88-104.205 131.264-99.0784 113.258-93.0389 96.014-86.1683 79.6819-78.5478 64.413-70.2637 50.3684-65.8868 43.835-61.3783 37.6705-56.7418 31.8852-51.9871 26.4981-47.1235 21.5281-42.1605 16.9945-37.1072 12.9168-31.9728 9.31466-26.7663 6.20827-21.497 3.61826-16.1747 1.56586-10.8097 0.0727595-5.41359-0.839039-0.0652237-1.14398ZM-20.2141 395.389 2.82507 415.748-27.286 421.964Z" transform="matrix(1.83697e-16 1 1 -1.83697e-16 2677 1568)"/><rect x="1239" y="1154" width="219" height="26.0001" fill="#FFFFFF"/><rect x="982" y="1154" width="219" height="26.0001" fill="#FFFFFF"/>
<text font-family="Calibri,Calibri_MSFontService,sans-serif" font-weight="400" font-size="83" transform="matrix(1 0 0 1 3367.51 2198)">Tube-side</text>
<text font-family="Calibri,Calibri_MSFontService,sans-serif" font-weight="400" font-size="83" transform="matrix(1 0 0 1 3367.51 2297)">inlet</text>
<text font-family="Calibri,Calibri_MSFontService,sans-serif" font-weight="400" font-size="83" transform="matrix(1 0 0 1 833.41 1037)">Tube-side</text>
<text font-family="Calibri,Calibri_MSFontService,sans-serif" font-weight="400" font-size="83" transform="matrix(1 0 0 1 955.922 1136)">outlet</text>
<text font-family="Calibri,Calibri_MSFontService,sans-serif" font-weight="400" font-size="83" transform="matrix(1 0 0 1 1290.93 1037)">Shell-side</text>
<text font-family="Calibri,Calibri_MSFontService,sans-serif" font-weight="400" font-size="83" transform="matrix(1 0 0 1 1290.93 1136)">inlet</text>
<text font-family="Calibri,Calibri_MSFontService,sans-serif" font-weight="400" font-size="83" transform="matrix(1 0 0 1 2913.87 2197)">Shell-side</text>
<text font-family="Calibri,Calibri_MSFontService,sans-serif" font-weight="400" font-size="83" transform="matrix(1 0 0 1 3033.47 2296)">outlet</text>
<text font-family="Calibri,Calibri_MSFontService,sans-serif" font-weight="400" font-size="83" transform="matrix(1 0 0 1 2575.66 1218)">Baffles</text><path d="M0 0 222.327 215.033" stroke="#000000" stroke-width="2.29167" stroke-miterlimit="8" fill="none" fill-rule="evenodd" transform="matrix(-1 0 0 1 2690.33 1258)"/></g></svg>