<svg width="2064" height="780" xmlns="http://www.w3.org/2000/svg" xmlns:xlink="http://www.w3.org/1999/xlink" xml:space="preserve" overflow="hidden"><defs><clipPath id="clip0"><rect x="368" y="298" width="2064" height="780"/></clipPath><clipPath id="clip1"><rect x="1625" y="298" width="808" height="780"/></clipPath><clipPath id="clip2"><rect x="1625" y="298" width="808" height="780"/></clipPath><clipPath id="clip3"><rect x="1625" y="298" width="808" height="780"/></clipPath><clipPath id="clip4"><rect x="1625" y="298" width="808" height="780"/></clipPath><clipPath id="clip5"><rect x="1625" y="296" width="807" height="782"/></clipPath><clipPath id="clip6"><rect x="1625" y="296" width="807" height="782"/></clipPath><clipPath id="clip7"><rect x="1625" y="296" width="807" height="782"/></clipPath><clipPath id="clip8"><rect x="1877" y="348" width="493" height="524"/></clipPath><clipPath id="clip9"><rect x="1877" y="348" width="493" height="524"/></clipPath><clipPath id="clip10"><rect x="1877" y="348" width="493" height="524"/></clipPath><clipPath id="clip11"><rect x="1877" y="348" width="493" height="524"/></clipPath><clipPath id="clip12"><rect x="1877" y="348" width="493" height="524"/></clipPath><clipPath id="clip13"><rect x="1877" y="348" width="493" height="524"/></clipPath><clipPath id="clip14"><rect x="1877" y="348" width="493" height="524"/></clipPath><clipPath id="clip15"><rect x="1625" y="296" width="807" height="782"/></clipPath><clipPath id="clip16"><rect x="1625" y="296" width="807" height="782"/></clipPath><clipPath id="clip17"><rect x="1625" y="296" width="807" height="782"/></clipPath><clipPath id="clip18"><rect x="1625" y="296" width="807" height="782"/></clipPath><clipPath id="clip19"><rect x="1625" y="296" width="807" height="782"/></clipPath><clipPath id="clip20"><rect x="1625" y="296" width="807" height="782"/></clipPath><clipPath id="clip21"><rect x="1625" y="296" width="807" height="782"/></clipPath><clipPath id="clip22"><rect x="1625" y="296" width="807" height="782"/></clipPath><clipPath id="clip23"><rect x="1625" y="296" width="807" height="782"/></clipPath><clipPath id="clip24"><rect x="1625" y="296" width="807" height="782"/></clipPath><clipPath id="clip25"><rect x="1625" y="296" width="807" height="782"/></clipPath><clipPath id="clip26"><rect x="1625" y="296" width="807" height="782"/></clipPath><clipPath id="clip27"><rect x="368" y="298" width="807" height="780"/></clipPath><clipPath id="clip28"><rect x="368" y="298" width="807" height="780"/></clipPath><clipPath id="clip29"><rect x="368" y="298" width="807" height="780"/></clipPath><clipPath id="clip30"><rect x="368" y="298" width="807" height="780"/></clipPath><clipPath id="clip31"><rect x="368" y="296" width="806" height="782"/></clipPath><clipPath id="clip32"><rect x="368" y="296" width="806" height="782"/></clipPath><clipPath id="clip33"><rect x="368" y="296" width="806" height="782"/></clipPath><clipPath id="clip34"><rect x="590" y="348" width="499" height="519"/></clipPath><clipPath id="clip35"><rect x="590" y="348" width="499" height="519"/></clipPath><clipPath id="clip36"><rect x="590" y="348" width="499" height="519"/></clipPath><clipPath id="clip37"><rect x="590" y="348" width="499" height="519"/></clipPath><clipPath id="clip38"><rect x="590" y="348" width="499" height="519"/></clipPath><clipPath id="clip39"><rect x="590" y="348" width="499" height="519"/></clipPath><clipPath id="clip40"><rect x="590" y="348" width="499" height="519"/></clipPath><clipPath id="clip41"><rect x="368" y="296" width="806" height="782"/></clipPath><clipPath id="clip42"><rect x="368" y="296" width="806" height="782"/></clipPath><clipPath id="clip43"><rect x="368" y="296" width="806" height="782"/></clipPath><clipPath id="clip44"><rect x="368" y="296" width="806" height="782"/></clipPath><clipPath id="clip45"><rect x="368" y="296" width="806" height="782"/></clipPath><clipPath id="clip46"><rect x="368" y="296" width="806" height="782"/></clipPath><clipPath id="clip47"><rect x="368" y="296" width="806" height="782"/></clipPath><clipPath id="clip48"><rect x="368" y="296" width="806" height="782"/></clipPath><clipPath id="clip49"><rect x="368" y="296" width="806" height="782"/></clipPath><clipPath id="clip50"><rect x="368" y="296" width="806" height="782"/></clipPath></defs><g clip-path="url(#clip0)" transform="translate(-368 -298)"><g clip-path="url(#clip1)"><g clip-path="url(#clip2)"><g clip-path="url(#clip3)"><g clip-path="url(#clip4)"><path d="M1980 133 2786 133 2786 912 1980 912Z" fill="#FFFFFF" transform="matrix(1 0 0 1.00128 -354 164.829)"/><g clip-path="url(#clip5)"><path d="M2232.5 530.518 2720.5 530.518M2232.5 356.512 2720.5 356.512M2232.5 183.5 2720.5 183.5" stroke="#D9D9D9" stroke-width="3.4375" stroke-linejoin="round" stroke-miterlimit="10" fill="none" transform="matrix(1 0 0 1.00128 -354 164.829)"/></g><g clip-path="url(#clip6)"><path d="M0 0 0.000360892 520" stroke="#BFBFBF" stroke-width="3.4375" stroke-linejoin="round" stroke-miterlimit="10" fill="none" fill-rule="evenodd" transform="matrix(1 0 0 -1.00128 1878.5 869.232)"/></g><g clip-path="url(#clip7)"><path d="M2232.5 703.5 2720.5 703.501" stroke="#BFBFBF" stroke-width="3.4375" stroke-linejoin="round" stroke-miterlimit="10" fill="none" fill-rule="evenodd" transform="matrix(1 0 0 1.00128 -354 164.829)"/></g><g clip-path="url(#clip8)"><path d="M2232.5 448.5C2248.77 441.625 2265.03 434.677 2281.3 427.876 2297.57 421.075 2313.83 414.285 2330.1 407.693 2346.37 401.1 2362.63 394.688 2378.9 388.319 2395.17 381.951 2411.43 375.615 2427.7 369.483 2443.97 363.351 2460.23 357.332 2476.5 351.527 2492.77 345.721 2509.03 340.074 2525.3 334.65 2541.57 329.226 2557.83 324.057 2574.1 318.981 2590.37 313.904 2606.63 308.851 2622.9 304.191 2639.17 299.531 2655.43 295.137 2671.7 291.022 2687.97 286.907 2704.23 283.34 2720.5 279.5" stroke="#ED7D31" stroke-width="6.875" stroke-linecap="round" stroke-linejoin="round" stroke-miterlimit="10" fill="none" transform="matrix(1 0 0 1.00128 -354 164.829)"/></g><g clip-path="url(#clip9)"><path d="M2232.5 474.5C2248.77 469.931 2265.03 465.277 2281.3 460.795 2297.57 456.314 2313.83 452.013 2330.1 447.609 2346.37 443.206 2362.63 438.651 2378.9 434.375 2395.17 430.098 2411.43 426.013 2427.7 421.947 2443.97 417.881 2460.23 413.851 2476.5 409.979 2492.77 406.108 2509.03 402.344 2525.3 398.719 2541.57 395.093 2557.83 391.635 2574.1 388.225 2590.37 384.815 2606.63 381.404 2622.9 378.259 2639.17 375.113 2655.43 372.145 2671.7 369.353 2687.97 366.559 2704.23 364.117 2720.5 361.5" stroke="#F4B183" stroke-width="6.875" stroke-linecap="round" stroke-linejoin="round" stroke-miterlimit="10" fill="none" transform="matrix(1 0 0 1.00128 -354 164.829)"/></g><g clip-path="url(#clip10)"><path d="M2232.5 501.5C2248.77 499.202 2265.03 496.877 2281.3 494.607 2297.57 492.337 2313.83 490.089 2330.1 487.88 2346.37 485.671 2362.63 483.508 2378.9 481.351 2395.17 479.194 2411.43 477.012 2427.7 474.938 2443.97 472.865 2460.23 470.847 2476.5 468.911 2492.77 466.975 2509.03 465.128 2525.3 463.321 2541.57 461.514 2557.83 459.739 2574.1 458.069 2590.37 456.399 2606.63 454.892 2622.9 453.302 2639.17 451.71 2655.43 449.989 2671.7 448.522 2687.97 447.055 2704.23 445.841 2720.5 444.5" stroke="#F8CBAD" stroke-width="6.875" stroke-linecap="round" stroke-linejoin="round" stroke-miterlimit="10" fill="none" transform="matrix(1 0 0 1.00128 -354 164.829)"/></g><g clip-path="url(#clip11)"><path d="M2232.5 530.5C2248.77 530.5 2265.03 530.5 2281.3 530.5 2297.57 530.5 2313.83 530.5 2330.1 530.5 2346.37 530.5 2362.63 530.5 2378.9 530.5 2395.17 530.5 2411.43 530.5 2427.7 530.5 2443.97 530.5 2460.23 530.5 2476.5 530.5 2492.77 530.5 2509.03 530.5 2525.3 530.5 2541.57 530.5 2557.83 530.5 2574.1 530.5 2590.37 530.5 2606.63 530.5 2622.9 530.5 2639.17 530.5 2655.43 530.5 2671.7 530.5 2687.97 530.5 2704.23 530.5 2720.5 530.5" stroke="#203864" stroke-width="6.875" stroke-linecap="round" stroke-linejoin="round" stroke-miterlimit="10" fill="none" transform="matrix(1 0 0 1.00128 -354 164.829)"/></g><g clip-path="url(#clip12)"><path d="M2232.5 630.5C2248.77 629.477 2265.03 628.556 2281.3 627.432 2297.57 626.307 2313.83 625.087 2330.1 623.756 2346.37 622.424 2362.63 620.993 2378.9 619.442 2395.17 617.891 2411.43 616.236 2427.7 614.45 2443.97 612.663 2460.23 610.766 2476.5 608.721 2492.77 606.676 2509.03 604.512 2525.3 602.18 2541.57 599.848 2557.83 597.386 2574.1 594.73 2590.37 592.074 2606.63 589.272 2622.9 586.245 2639.17 583.218 2655.43 580.026 2671.7 576.568 2687.97 573.111 2704.23 569.189 2720.5 565.5" stroke="#C5E0B4" stroke-width="6.875" stroke-linecap="round" stroke-linejoin="round" stroke-miterlimit="10" fill="none" transform="matrix(1 0 0 1.00128 -354 164.829)"/></g><g clip-path="url(#clip13)"><path d="M2232.5 573.5C2248.77 571.151 2265.03 569.045 2281.3 566.454 2297.57 563.863 2313.83 561.04 2330.1 557.954 2346.37 554.868 2362.63 551.544 2378.9 547.935 2395.17 544.326 2411.43 540.47 2427.7 536.301 2443.97 532.131 2460.23 527.7 2476.5 522.918 2492.77 518.137 2509.03 513.072 2525.3 507.611 2541.57 502.149 2557.83 496.378 2574.1 490.15 2590.37 483.921 2606.63 477.347 2622.9 470.241 2639.17 463.135 2655.43 455.638 2671.7 447.515 2687.97 439.391 2704.23 430.171 2720.5 421.5" stroke="#A9D18E" stroke-width="6.875" stroke-linecap="round" stroke-linejoin="round" stroke-miterlimit="10" fill="none" transform="matrix(1 0 0 1.00128 -354 164.829)"/></g><g clip-path="url(#clip14)"><path d="M2232.5 463.5C2248.77 459.435 2265.03 455.743 2281.3 451.305 2297.57 446.866 2313.83 442.073 2330.1 436.868 2346.37 431.663 2362.63 426.092 2378.9 420.073 2395.17 414.054 2411.43 407.652 2427.7 400.755 2443.97 393.857 2460.23 386.55 2476.5 378.689 2492.77 370.826 2509.03 362.52 2525.3 353.581 2541.57 344.642 2557.83 335.214 2574.1 325.055 2590.37 314.897 2606.63 304.19 2622.9 292.631 2639.17 281.072 2655.43 268.889 2671.7 255.701 2687.97 242.512 2704.23 227.567 2720.5 213.5" stroke="#70AD47" stroke-width="6.875" stroke-linecap="round" stroke-linejoin="round" stroke-miterlimit="10" fill="none" transform="matrix(1 0 0 1.00128 -354 164.829)"/></g><g clip-path="url(#clip15)"><text fill="#595959" font-family="Times New Roman,Times New Roman_MSFontService,sans-serif" font-weight="400" font-size="50" transform="matrix(1 0 0 1.00128 1751.83 885)">-</text><text fill="#595959" font-family="Times New Roman,Times New Roman_MSFontService,sans-serif" font-weight="400" font-size="50" transform="matrix(1 0 0 1.00128 1768.83 885)">2</text><text fill="#595959" font-family="Times New Roman,Times New Roman_MSFontService,sans-serif" font-weight="400" font-size="50" transform="matrix(1 0 0 1.00128 1793.83 885)">%</text></g><g clip-path="url(#clip16)"><text fill="#595959" font-family="Times New Roman,Times New Roman_MSFontService,sans-serif" font-weight="400" font-size="50" transform="matrix(1 0 0 1.00128 1768.63 712)">0</text><text fill="#595959" font-family="Times New Roman,Times New Roman_MSFontService,sans-serif" font-weight="400" font-size="50" transform="matrix(1 0 0 1.00128 1793.63 712)">%</text></g><g clip-path="url(#clip17)"><text fill="#595959" font-family="Times New Roman,Times New Roman_MSFontService,sans-serif" font-weight="400" font-size="50" transform="matrix(1 0 0 1.00128 1768.63 538)">2</text><text fill="#595959" font-family="Times New Roman,Times New Roman_MSFontService,sans-serif" font-weight="400" font-size="50" transform="matrix(1 0 0 1.00128 1793.63 538)">%</text></g><g clip-path="url(#clip18)"><text fill="#595959" font-family="Times New Roman,Times New Roman_MSFontService,sans-serif" font-weight="400" font-size="50" transform="matrix(1 0 0 1.00128 1768.63 364)">4</text><text fill="#595959" font-family="Times New Roman,Times New Roman_MSFontService,sans-serif" font-weight="400" font-size="50" transform="matrix(1 0 0 1.00128 1793.63 364)">%</text></g><g clip-path="url(#clip19)"><text fill="#595959" font-family="Times New Roman,Times New Roman_MSFontService,sans-serif" font-weight="400" font-size="50" transform="matrix(1 0 0 1.00128 1840.91 944)">100</text></g><g clip-path="url(#clip20)"><text fill="#595959" font-family="Times New Roman,Times New Roman_MSFontService,sans-serif" font-weight="400" font-size="50" transform="matrix(1 0 0 1.00128 2084.65 944)">150</text></g><g clip-path="url(#clip21)"><text fill="#595959" font-family="Times New Roman,Times New Roman_MSFontService,sans-serif" font-weight="400" font-size="50" transform="matrix(1 0 0 1.00128 2328.39 944)">200</text></g><g clip-path="url(#clip22)"><text fill="#595959" font-family="Times New Roman,Times New Roman_MSFontService,sans-serif" font-weight="400" font-size="50" transform="matrix(6.12323e-17 -1.00128 1 6.13109e-17 1727.12 810)">Delta </text></g><g clip-path="url(#clip23)"><text fill="#595959" font-family="Times New Roman,Times New Roman_MSFontService,sans-serif" font-weight="400" font-size="50" transform="matrix(6.12323e-17 -1.00128 1 6.13109e-17 1727.12 687)">Heat Flow</text><text fill="#595959" font-family="Times New Roman,Times New Roman_MSFontService,sans-serif" font-weight="400" font-size="50" transform="matrix(6.12323e-17 -1.00128 1 6.13109e-17 1727.12 478)">, </text><text fill="#595959" font-family="Times New Roman,Times New Roman_MSFontService,sans-serif" font-weight="400" font-size="50" transform="matrix(6.12323e-17 -1.00128 1 6.13109e-17 1727.12 452)">%</text></g><g clip-path="url(#clip24)"><text fill="#595959" font-family="Times New Roman,Times New Roman_MSFontService,sans-serif" font-weight="400" font-size="50" transform="matrix(1 0 0 1.00128 1954.22 1016)">Temperature</text><text fill="#595959" font-family="Times New Roman,Times New Roman_MSFontService,sans-serif" font-weight="400" font-size="50" transform="matrix(1 0 0 1.00128 2206.22 1016)">, </text></g><g clip-path="url(#clip25)"><text fill="#595959" font-family="Times New Roman,Times New Roman_MSFontService,sans-serif" font-weight="400" font-size="50" transform="matrix(1 0 0 1.00128 2236.92 1016)">°</text></g><g clip-path="url(#clip26)"><text fill="#595959" font-family="Times New Roman,Times New Roman_MSFontService,sans-serif" font-weight="400" font-size="50" transform="matrix(1 0 0 1.00128 2257.09 1016)">C</text></g></g></g></g></g><g clip-path="url(#clip27)"><g clip-path="url(#clip28)"><g clip-path="url(#clip29)"><g clip-path="url(#clip30)"><path d="M1101.36 133.165 1908.36 133.165 1908.36 913.131 1101.36 913.131Z" fill="#FFFFFF" transform="matrix(1 0 0 1.00004 -733.364 164.829)"/><g clip-path="url(#clip31)"><path d="M1324.14 493.127 1819.75 493.127M1324.14 286.855 1819.75 286.855" stroke="#D9D9D9" stroke-width="3.44176" stroke-linejoin="round" stroke-miterlimit="10" fill="none" transform="matrix(1 0 0 1.00004 -733.364 164.829)"/></g><g clip-path="url(#clip32)"><path d="M0 0 0.00036134 514.638" stroke="#BFBFBF" stroke-width="3.44176" stroke-linejoin="round" stroke-miterlimit="10" fill="none" fill-rule="evenodd" transform="matrix(1 0 0 -1.00004 590.776 863.225)"/></g><g clip-path="url(#clip33)"><path d="M1324.14 698.365 1819.75 698.365" stroke="#BFBFBF" stroke-width="3.44176" stroke-linejoin="round" stroke-miterlimit="10" fill="none" fill-rule="evenodd" transform="matrix(1 0 0 1.00004 -733.364 164.829)"/></g><g clip-path="url(#clip34)"><path d="M1324.14 671.332C1340.66 667.561 1357.18 664.392 1373.7 660.021 1390.22 655.648 1406.74 650.81 1423.26 645.097 1439.78 639.384 1456.3 633.087 1472.82 625.742 1489.35 618.397 1505.87 610.333 1522.39 601.029 1538.91 591.725 1555.43 581.547 1571.95 569.918 1588.47 558.29 1604.99 545.613 1621.51 531.255 1638.03 516.896 1654.55 501.299 1671.07 483.769 1687.59 466.238 1704.11 447.258 1720.63 426.071 1737.15 404.883 1753.67 382.014 1770.19 356.643 1786.71 331.27 1803.23 301.44 1819.75 273.839" stroke="#ED7D31" stroke-width="6.88353" stroke-linecap="round" stroke-linejoin="round" stroke-miterlimit="10" fill="none" transform="matrix(1 0 0 1.00004 -733.364 164.829)"/></g><g clip-path="url(#clip35)"><path d="M1324.14 673.334C1340.66 669.86 1357.18 666.94 1373.7 662.912 1390.22 658.884 1406.74 654.429 1423.26 649.168 1439.78 643.909 1456.3 638.112 1472.82 631.354 1489.35 624.596 1505.87 617.176 1522.39 608.621 1538.91 600.065 1555.43 590.708 1571.95 580.024 1588.47 569.339 1604.99 557.694 1621.51 544.516 1638.03 531.337 1654.55 517.023 1671.07 500.951 1687.59 484.877 1704.11 467.478 1720.63 448.077 1737.15 428.675 1753.67 407.74 1770.19 384.541 1786.71 361.342 1803.23 334.102 1819.75 308.883" stroke="#F4B183" stroke-width="6.88353" stroke-linecap="round" stroke-linejoin="round" stroke-miterlimit="10" fill="none" transform="matrix(1 0 0 1.00004 -733.364 164.829)"/></g><g clip-path="url(#clip36)"><path d="M1324.14 675.337C1340.66 672.163 1357.18 669.494 1373.7 665.816 1390.22 662.137 1406.74 658.068 1423.26 653.266 1439.78 648.464 1456.3 643.172 1472.82 637.006 1489.35 630.841 1505.87 624.071 1522.39 616.27 1538.91 608.471 1555.43 599.939 1571.95 590.205 1588.47 580.471 1604.99 569.864 1621.51 557.868 1638.03 545.871 1654.55 532.845 1671.07 518.23 1687.59 503.615 1704.11 487.797 1720.63 470.176 1737.15 452.556 1753.67 433.546 1770.19 412.505 1786.71 391.463 1803.23 366.785 1819.75 343.926" stroke="#F8CBAD" stroke-width="6.88353" stroke-linecap="round" stroke-linejoin="round" stroke-miterlimit="10" fill="none" transform="matrix(1 0 0 1.00004 -733.364 164.829)"/></g><g clip-path="url(#clip37)"><path d="M1324.14 677.339C1340.66 674.47 1357.18 672.056 1373.7 668.73 1390.22 665.405 1406.74 661.726 1423.26 657.387 1439.78 653.049 1456.3 648.267 1472.82 642.699 1489.35 637.13 1505.87 631.018 1522.39 623.978 1538.91 616.938 1555.43 609.239 1571.95 600.46 1588.47 591.681 1604.99 582.116 1621.51 571.308 1638.03 560.498 1654.55 548.762 1671.07 535.606 1687.59 522.448 1704.11 508.212 1720.63 492.366 1737.15 476.519 1753.67 459.43 1770.19 440.531 1786.71 421.631 1803.23 399.49 1819.75 378.969" stroke="#203864" stroke-width="6.88353" stroke-linecap="round" stroke-linejoin="round" stroke-miterlimit="10" fill="none" transform="matrix(1 0 0 1.00004 -733.364 164.829)"/></g><g clip-path="url(#clip38)"><path d="M1324.14 679.342C1340.66 676.631 1357.18 674.351 1373.7 671.21 1390.22 668.069 1406.74 664.591 1423.26 660.491 1439.78 656.391 1456.3 651.872 1472.82 646.607 1489.35 641.342 1505.87 635.558 1522.39 628.904 1538.91 622.25 1555.43 614.982 1571.95 606.68 1588.47 598.377 1604.99 589.316 1621.51 579.089 1638.03 568.863 1654.55 557.776 1671.07 545.321 1687.59 532.865 1704.11 519.363 1720.63 504.357 1737.15 489.35 1753.67 473.175 1770.19 455.281 1786.71 437.387 1803.23 416.421 1819.75 396.992" stroke="#C5E0B4" stroke-width="6.88353" stroke-linecap="round" stroke-linejoin="round" stroke-miterlimit="10" fill="none" transform="matrix(1 0 0 1.00004 -733.364 164.829)"/></g><g clip-path="url(#clip39)"><path d="M1324.14 680.343C1340.66 677.824 1357.18 675.705 1373.7 672.784 1390.22 669.863 1406.74 666.631 1423.26 662.816 1439.78 659 1456.3 654.796 1472.82 649.895 1489.35 644.995 1505.87 639.613 1522.39 633.413 1538.91 627.211 1555.43 620.426 1571.95 612.688 1588.47 604.949 1604.99 596.518 1621.51 586.984 1638.03 577.45 1654.55 567.103 1671.07 555.484 1687.59 543.865 1704.11 531.274 1720.63 517.27 1737.15 503.264 1753.67 488.164 1770.19 471.455 1786.71 454.746 1803.23 435.163 1819.75 417.017" stroke="#A9D18E" stroke-width="6.88353" stroke-linecap="round" stroke-linejoin="round" stroke-miterlimit="10" fill="none" transform="matrix(1 0 0 1.00004 -733.364 164.829)"/></g><g clip-path="url(#clip40)"><path d="M1324.14 681.344C1340.66 679.022 1357.18 677.072 1373.7 674.379 1390.22 671.687 1406.74 668.707 1423.26 665.189 1439.78 661.671 1456.3 657.793 1472.82 653.271 1489.35 648.75 1505.87 643.784 1522.39 638.059 1538.91 632.334 1555.43 626.072 1571.95 618.924 1588.47 611.776 1604.99 603.978 1621.51 595.171 1638.03 586.364 1654.55 576.815 1671.07 566.081 1687.59 555.347 1704.11 543.719 1720.63 530.77 1737.15 517.819 1753.67 503.839 1770.19 488.385 1786.71 472.93 1803.23 454.823 1819.75 438.043" stroke="#70AD47" stroke-width="6.88353" stroke-linecap="round" stroke-linejoin="round" stroke-miterlimit="10" fill="none" transform="matrix(1 0 0 1.00004 -733.364 164.829)"/></g><g clip-path="url(#clip41)"><text fill="#595959" font-family="Times New Roman,Times New Roman_MSFontService,sans-serif" font-weight="400" font-size="50" transform="matrix(1.00124 0 0 1.00128 522.401 879)">0</text></g><g clip-path="url(#clip42)"><text fill="#595959" font-family="Times New Roman,Times New Roman_MSFontService,sans-serif" font-weight="400" font-size="50" transform="matrix(1.00124 0 0 1.00128 497.16 673)">10</text></g><g clip-path="url(#clip43)"><text fill="#595959" font-family="Times New Roman,Times New Roman_MSFontService,sans-serif" font-weight="400" font-size="50" transform="matrix(1.00124 0 0 1.00128 497.16 467)">20</text></g><g clip-path="url(#clip44)"><text fill="#595959" font-family="Times New Roman,Times New Roman_MSFontService,sans-serif" font-weight="400" font-size="50" transform="matrix(1.00124 0 0 1.00128 552.719 939)">100</text></g><g clip-path="url(#clip45)"><text fill="#595959" font-family="Times New Roman,Times New Roman_MSFontService,sans-serif" font-weight="400" font-size="50" transform="matrix(1.00124 0 0 1.00128 800.516 939)">150</text></g><g clip-path="url(#clip46)"><text fill="#595959" font-family="Times New Roman,Times New Roman_MSFontService,sans-serif" font-weight="400" font-size="50" transform="matrix(1.00124 0 0 1.00128 1048.31 939)">200</text></g><g clip-path="url(#clip47)"><text fill="#595959" font-family="Times New Roman,Times New Roman_MSFontService,sans-serif" font-weight="400" font-size="50" transform="matrix(6.13083e-17 -1.00128 1.00124 6.13109e-17 472.42 847)">Saturation Pressure</text><text fill="#595959" font-family="Times New Roman,Times New Roman_MSFontService,sans-serif" font-weight="400" font-size="50" transform="matrix(6.13083e-17 -1.00128 1.00124 6.13109e-17 472.42 458)">, </text><text fill="#595959" font-family="Times New Roman,Times New Roman_MSFontService,sans-serif" font-weight="400" font-size="50" transform="matrix(6.13083e-17 -1.00128 1.00124 6.13109e-17 472.42 432)">bar</text></g><g clip-path="url(#clip48)"><text fill="#595959" font-family="Times New Roman,Times New Roman_MSFontService,sans-serif" font-weight="400" font-size="50" transform="matrix(1.00124 0 0 1.00128 669.924 1010)">Temperature</text><text fill="#595959" font-family="Times New Roman,Times New Roman_MSFontService,sans-serif" font-weight="400" font-size="50" transform="matrix(1.00124 0 0 1.00128 922.237 1010)">, </text></g><g clip-path="url(#clip49)"><text fill="#595959" font-family="Times New Roman,Times New Roman_MSFontService,sans-serif" font-weight="400" font-size="50" transform="matrix(1.00124 0 0 1.00128 952.975 1010)">°</text></g><g clip-path="url(#clip50)"><text fill="#595959" font-family="Times New Roman,Times New Roman_MSFontService,sans-serif" font-weight="400" font-size="50" transform="matrix(1.00124 0 0 1.00128 973.16 1010)">C</text></g></g></g></g></g><rect x="1164" y="298" width="506" height="780" fill="#FFFFFF"/><path d="M1164.5 376.214C1164.5 363.669 1174.67 353.5 1187.21 353.5L1635.79 353.5C1648.33 353.5 1658.5 363.669 1658.5 376.214L1658.5 1000.79C1658.5 1013.33 1648.33 1023.5 1635.79 1023.5L1187.21 1023.5C1174.67 1023.5 1164.5 1013.33 1164.5 1000.79Z" stroke="#DBDBDB" stroke-width="4.58333" stroke-miterlimit="8" fill="#FFFFFF" fill-rule="evenodd"/><path d="M1213 401 1264.97 401.001" stroke="#203864" stroke-width="10.3125" stroke-miterlimit="8" fill="none" fill-rule="evenodd"/><text font-family="Times New Roman,Times New Roman_MSFontService,sans-serif" font-weight="400" font-size="50" transform="matrix(1 0 0 1 1278.66 419)">Pure Water</text><text font-family="Times New Roman,Times New Roman_MSFontService,sans-serif" font-weight="400" font-size="50" transform="matrix(1 0 0 1 1201.76 551)">NCG, kg</text><text font-family="Times New Roman,Times New Roman_MSFontService,sans-serif" font-weight="400" font-size="34" transform="matrix(1 0 0 1 1384.52 563)">CO</text><text font-family="Times New Roman,Times New Roman_MSFontService,sans-serif" font-weight="400" font-size="34" transform="matrix(1 0 0 1 1430.93 575)">2</text><text font-family="Times New Roman,Times New Roman_MSFontService,sans-serif" font-weight="400" font-size="50" transform="matrix(1 0 0 1 1447.54 551)">/</text><text font-family="Times New Roman,Times New Roman_MSFontService,sans-serif" font-weight="400" font-size="50" transform="matrix(1 0 0 1 1473.9 551)">kg</text><text font-family="Times New Roman,Times New Roman_MSFontService,sans-serif" font-weight="400" font-size="34" transform="matrix(1 0 0 1 1524.31 563)">H</text><text font-family="Times New Roman,Times New Roman_MSFontService,sans-serif" font-weight="400" font-size="34" transform="matrix(1 0 0 1 1548.38 575)">2</text><text font-family="Times New Roman,Times New Roman_MSFontService,sans-serif" font-weight="400" font-size="34" transform="matrix(1 0 0 1 1564.99 563)">O</text><path d="M1213 608 1264.97 608" stroke="#F19658" stroke-width="10.3125" stroke-miterlimit="8" fill="none" fill-rule="evenodd"/><text font-family="Times New Roman,Times New Roman_MSFontService,sans-serif" font-weight="400" font-size="50" transform="matrix(1 0 0 1 1278.66 627)">0.075</text><path d="M1431 608 1482.97 608" stroke="#F4B183" stroke-width="10.3125" stroke-miterlimit="8" fill="none" fill-rule="evenodd"/><text font-family="Times New Roman,Times New Roman_MSFontService,sans-serif" font-weight="400" font-size="50" transform="matrix(1 0 0 1 1496.53 627)">0.05</text><path d="M1213 696 1264.97 696" stroke="#FAD8C2" stroke-width="10.3125" stroke-miterlimit="8" fill="none" fill-rule="evenodd"/><text font-family="Times New Roman,Times New Roman_MSFontService,sans-serif" font-weight="400" font-size="50" transform="matrix(1 0 0 1 1278.66 714)">0.025</text><text font-family="Times New Roman,Times New Roman_MSFontService,sans-serif" font-weight="400" font-size="50" transform="matrix(1 0 0 1 1201.76 831)">Salinity, </text><text font-family="Times New Roman,Times New Roman_MSFontService,sans-serif" font-weight="400" font-size="50" transform="matrix(1 0 0 1 1382.8 831)">kg</text><text font-family="Times New Roman,Times New Roman_MSFontService,sans-serif" font-weight="400" font-size="34" transform="matrix(1 0 0 1 1433.22 843)">NaCl</text><text font-family="Times New Roman,Times New Roman_MSFontService,sans-serif" font-weight="400" font-size="50" transform="matrix(1 0 0 1 1503.69 831)">/kg</text><text font-family="Times New Roman,Times New Roman_MSFontService,sans-serif" font-weight="400" font-size="34" transform="matrix(1 0 0 1 1567.85 843)">H</text><text font-family="Times New Roman,Times New Roman_MSFontService,sans-serif" font-weight="400" font-size="34" transform="matrix(1 0 0 1 1591.92 855)">2</text><text font-family="Times New Roman,Times New Roman_MSFontService,sans-serif" font-weight="400" font-size="34" transform="matrix(1 0 0 1 1608.53 843)">O</text><path d="M1213 888 1264.97 888" stroke="#70AD47" stroke-width="10.3125" stroke-miterlimit="8" fill="none" fill-rule="evenodd"/><text font-family="Times New Roman,Times New Roman_MSFontService,sans-serif" font-weight="400" font-size="50" transform="matrix(1 0 0 1 1278.66 906)">0.3</text><path d="M1431 888 1482.97 888" stroke="#A9D18E" stroke-width="10.3125" stroke-miterlimit="8" fill="none" fill-rule="evenodd"/><text font-family="Times New Roman,Times New Roman_MSFontService,sans-serif" font-weight="400" font-size="50" transform="matrix(1 0 0 1 1496.53 906)">0.2</text><path d="M1213 976 1264.97 976" stroke="#C5E0B4" stroke-width="10.3125" stroke-miterlimit="8" fill="none" fill-rule="evenodd"/><text font-family="Times New Roman,Times New Roman_MSFontService,sans-serif" font-weight="400" font-size="50" transform="matrix(1 0 0 1 1278.66 994)">0.1</text></g></svg>