<svg width="1089" height="769" xmlns="http://www.w3.org/2000/svg" xmlns:xlink="http://www.w3.org/1999/xlink" xml:space="preserve" overflow="hidden"><defs><clipPath id="clip0"><rect x="6915" y="3767" width="1089" height="769"/></clipPath></defs><g clip-path="url(#clip0)" transform="translate(-6915 -3767)"><rect x="6915" y="3767" width="1089" height="769" fill="#FFFFFF"/><g><path d="M7191.5 4296.64 7885.5 4296.64M7191.5 4225.64 7885.5 4225.64M7191.5 4155.64 7885.5 4155.64M7191.5 4085.63 7885.5 4085.63M7191.5 4014.63 7885.5 4014.63M7191.5 3944.63 7885.5 3944.63M7191.5 3874.63 7885.5 3874.63M7191.5 3804.5 7885.5 3804.5" stroke="#D9D9D9" stroke-width="3.4375" stroke-linejoin="round" stroke-miterlimit="10" fill="none"/></g><g><path d="M0 0 0.000360892 562" stroke="#BFBFBF" stroke-width="3.4375" stroke-linejoin="round" stroke-miterlimit="10" fill="none" fill-rule="evenodd" transform="matrix(1 0 0 -1 7191.5 4366.5)"/></g><g><path d="M7191.5 4366.5 7885.5 4366.5" stroke="#BFBFBF" stroke-width="3.4375" stroke-linejoin="round" stroke-miterlimit="10" fill="none" fill-rule="evenodd"/></g><g><path d="M7191.5 3900.5C7214.63 3905.47 7237.77 3910.42 7260.9 3915.41 7284.03 3920.39 7307.17 3925.4 7330.3 3930.41 7353.43 3935.42 7376.57 3940.43 7399.7 3945.46 7422.83 3950.48 7445.97 3955.45 7469.1 3960.55 7492.23 3965.66 7515.37 3970.96 7538.5 3976.09 7561.63 3981.21 7584.77 3986.2 7607.9 3991.28 7631.03 3996.35 7654.17 4001.43 7677.3 4006.52 7700.43 4011.61 7723.57 4016.7 7746.7 4021.8 7769.83 4026.9 7792.97 4032.01 7816.1 4037.12 7839.23 4042.24 7862.37 4047.37 7885.5 4052.5" stroke="#4472C4" stroke-width="6.875" stroke-linecap="round" stroke-linejoin="round" stroke-miterlimit="10" fill="none"/></g><g><path d="M7191.5 3900.5C7214.63 3899.59 7237.77 3898.68 7260.9 3897.77 7284.03 3896.86 7307.17 3895.94 7330.3 3895.03 7353.43 3894.12 7376.57 3893.21 7399.7 3892.3 7422.83 3891.38 7445.97 3890.41 7469.1 3889.56 7492.23 3888.71 7515.37 3888.06 7538.5 3887.21 7561.63 3886.37 7584.77 3885.39 7607.9 3884.47 7631.03 3883.56 7654.17 3882.65 7677.3 3881.74 7700.43 3880.82 7723.57 3879.91 7746.7 3878.99 7769.83 3878.08 7792.97 3877.16 7816.1 3876.24 7839.23 3875.33 7862.37 3874.41 7885.5 3873.5" stroke="#FFC000" stroke-width="6.875" stroke-linecap="round" stroke-linejoin="round" stroke-miterlimit="10" fill="none"/></g><g><path d="M7191.5 3971.5C7214.63 3971.01 7237.77 3970.52 7260.9 3970.02 7284.03 3969.52 7307.17 3969.02 7330.3 3968.52 7353.43 3968.02 7376.57 3967.52 7399.7 3967.02 7422.83 3966.52 7445.97 3966.02 7469.1 3965.52 7492.23 3965.02 7515.37 3964.52 7538.5 3964.02 7561.63 3963.52 7584.77 3963.02 7607.9 3962.52 7631.03 3962.02 7654.17 3961.52 7677.3 3961.02 7700.43 3960.51 7723.57 3960.01 7746.7 3959.51 7769.83 3959.01 7792.97 3958.51 7816.1 3958.01 7839.23 3957.5 7862.37 3957 7885.5 3956.5" stroke="#ED7D31" stroke-width="6.875" stroke-linecap="round" stroke-linejoin="round" stroke-miterlimit="10" fill="none"/></g><g><text fill="#595959" font-family="Times New Roman,Times New Roman_MSFontService,sans-serif" font-weight="400" font-size="55" transform="matrix(1 0 0 1 7117.39 4384)">0</text></g><g><text fill="#595959" font-family="Times New Roman,Times New Roman_MSFontService,sans-serif" font-weight="400" font-size="55" transform="matrix(1 0 0 1 7089.89 4313)">20</text></g><g><text fill="#595959" font-family="Times New Roman,Times New Roman_MSFontService,sans-serif" font-weight="400" font-size="55" transform="matrix(1 0 0 1 7089.89 4243)">40</text></g><g><text fill="#595959" font-family="Times New Roman,Times New Roman_MSFontService,sans-serif" font-weight="400" font-size="55" transform="matrix(1 0 0 1 7089.89 4173)">60</text></g><g><text fill="#595959" font-family="Times New Roman,Times New Roman_MSFontService,sans-serif" font-weight="400" font-size="55" transform="matrix(1 0 0 1 7089.89 4102)">80</text></g><g><text fill="#595959" font-family="Times New Roman,Times New Roman_MSFontService,sans-serif" font-weight="400" font-size="55" transform="matrix(1 0 0 1 7062.39 4032)">100</text></g><g><text fill="#595959" font-family="Times New Roman,Times New Roman_MSFontService,sans-serif" font-weight="400" font-size="55" transform="matrix(1 0 0 1 7062.39 3962)">120</text></g><g><text fill="#595959" font-family="Times New Roman,Times New Roman_MSFontService,sans-serif" font-weight="400" font-size="55" transform="matrix(1 0 0 1 7062.39 3892)">140</text></g><g><text fill="#595959" font-family="Times New Roman,Times New Roman_MSFontService,sans-serif" font-weight="400" font-size="55" transform="matrix(1 0 0 1 7062.39 3821)">160</text></g><g><text fill="#595959" font-family="Times New Roman,Times New Roman_MSFontService,sans-serif" font-weight="400" font-size="55" transform="matrix(1 0 0 1 7177.94 4448)">0</text></g><g><text fill="#595959" font-family="Times New Roman,Times New Roman_MSFontService,sans-serif" font-weight="400" font-size="55" transform="matrix(1 0 0 1 7374.69 4448)">0.01</text></g><g><text fill="#595959" font-family="Times New Roman,Times New Roman_MSFontService,sans-serif" font-weight="400" font-size="55" transform="matrix(1 0 0 1 7605.81 4448)">0.02</text></g><g><text fill="#595959" font-family="Times New Roman,Times New Roman_MSFontService,sans-serif" font-weight="400" font-size="55" transform="matrix(1 0 0 1 7836.94 4448)">0.03</text></g><g><text fill="#595959" font-family="Times New Roman,Times New Roman_MSFontService,sans-serif" font-weight="400" font-size="55" transform="matrix(6.12323e-17 -1 1 6.12323e-17 6997.63 4363)">Specific Net Power, </text></g><g><text fill="#595959" font-family="Times New Roman,Times New Roman_MSFontService,sans-serif" font-weight="400" font-size="55" transform="matrix(6.12323e-17 -1 1 6.12323e-17 7061.64 4320)">kW/(kgWater/s)</text></g><g><text fill="#595959" font-family="Times New Roman,Times New Roman_MSFontService,sans-serif" font-weight="400" font-size="55" transform="matrix(1 0 0 1 7205.44 4517)">NCG content, kgCO2/kgWater</text></g><g><rect x="7213.5" y="4128.5" width="705" height="219" stroke="#DBDBDB" stroke-width="3.4375" stroke-linejoin="round" stroke-miterlimit="10" fill="#FFFFFF"/></g><g><path d="M7255.5 4164.5 7343.5 4164.5" stroke="#4472C4" stroke-width="6.875" stroke-linecap="round" stroke-linejoin="round" stroke-miterlimit="10" fill="none" fill-rule="evenodd"/></g><g><text fill="#595959" font-family="Times New Roman,Times New Roman_MSFontService,sans-serif" font-weight="400" font-size="55" transform="matrix(1 0 0 1 7353.1 4182)">Flash</text></g><g><path d="M7255.5 4238.5 7343.5 4238.5" stroke="#FFC000" stroke-width="6.875" stroke-linecap="round" stroke-linejoin="round" stroke-miterlimit="10" fill="none" fill-rule="evenodd"/></g><g><text fill="#595959" font-family="Times New Roman,Times New Roman_MSFontService,sans-serif" font-weight="400" font-size="55" transform="matrix(1 0 0 1 7353.1 4255)">Flash - No CO2 penalty</text></g><g><path d="M7255.5 4311.5 7343.5 4311.5" stroke="#ED7D31" stroke-width="6.875" stroke-linecap="round" stroke-linejoin="round" stroke-miterlimit="10" fill="none" fill-rule="evenodd"/></g><g><text fill="#595959" font-family="Times New Roman,Times New Roman_MSFontService,sans-serif" font-weight="400" font-size="55" transform="matrix(1 0 0 1 7353.1 4328)">Isobutane</text></g></g></svg>