<svg width="2040" height="858" xmlns="http://www.w3.org/2000/svg" xmlns:xlink="http://www.w3.org/1999/xlink" xml:space="preserve" overflow="hidden"><defs><clipPath id="clip0"><rect x="4120" y="7208" width="2040" height="858"/></clipPath></defs><g clip-path="url(#clip0)" transform="translate(-4120 -7208)"><rect x="5367" y="7208" width="793" height="858" fill="#FFFFFF"/><g><path d="M5609.5 7766.75 6077.5 7766.75M5609.5 7681.75 6077.5 7681.75M5609.5 7597.75 6077.5 7597.75M5609.5 7512.75 6077.5 7512.75M5609.5 7427.74 6077.5 7427.74M5609.5 7343.74 6077.5 7343.74M5609.5 7259.5 6077.5 7259.5" stroke="#D9D9D9" stroke-width="3.4375" stroke-linejoin="round" stroke-miterlimit="10" fill="none"/></g><g><path d="M5843.69 7259.5 5843.69 7850.5M6077.5 7259.5 6077.5 7850.5" stroke="#D9D9D9" stroke-width="3.4375" stroke-linejoin="round" stroke-miterlimit="10" fill="none"/></g><g><path d="M0 0 0.000360892 591" stroke="#BFBFBF" stroke-width="3.4375" stroke-linejoin="round" stroke-miterlimit="10" fill="none" fill-rule="evenodd" transform="matrix(1 0 0 -1 5609.5 7850.5)"/></g><g><path d="M5609.5 7850.5 6077.5 7850.5" stroke="#BFBFBF" stroke-width="3.4375" stroke-linejoin="round" stroke-miterlimit="10" fill="none" fill-rule="evenodd"/></g><g><path d="M5609.5 7781.5C5625.1 7772.1 5640.7 7763.26 5656.3 7753.29 5671.9 7743.31 5687.5 7732.8 5703.1 7721.65 5718.7 7710.49 5734.3 7698.72 5749.9 7686.34 5765.5 7673.96 5781.1 7660.94 5796.7 7647.38 5812.3 7633.81 5827.9 7619.63 5843.5 7604.93 5859.1 7590.22 5874.7 7574.9 5890.3 7559.16 5905.9 7543.42 5921.5 7526.72 5937.1 7510.49 5952.7 7494.27 5968.3 7478.05 5983.9 7461.83 5999.5 7445.61 6015.1 7429.39 6030.7 7413.17 6046.3 7396.94 6061.9 7380.72 6077.5 7364.5" stroke="#4472C4" stroke-width="6.875" stroke-linecap="round" stroke-linejoin="round" stroke-miterlimit="10" fill="none"/></g><g><path d="M5609.5 7732.5C5625.1 7725.42 5640.7 7718.37 5656.3 7711.27 5671.9 7704.17 5687.5 7697.01 5703.1 7689.9 5718.7 7682.79 5734.3 7675.7 5749.9 7668.6 5765.5 7661.5 5781.1 7654.4 5796.7 7647.3 5812.3 7640.2 5827.9 7633.1 5843.5 7626 5859.1 7618.9 5874.7 7611.8 5890.3 7604.7 5905.9 7597.6 5921.5 7590.5 5937.1 7583.4 5952.7 7576.3 5968.3 7569.2 5983.9 7562.1 5999.5 7555 6015.1 7547.9 6030.7 7540.8 6046.3 7533.7 6069.7 7523.05 6077.5 7519.5" stroke="#A5A5A5" stroke-width="6.875" stroke-linecap="round" stroke-linejoin="round" stroke-miterlimit="10" stroke-opacity="0.501961" fill="none"/></g><g><path d="M5609.5 7750.5C5625.1 7747.95 5640.7 7749.4 5656.3 7742.85 5671.9 7736.3 5687.5 7722.68 5703.1 7711.2 5718.7 7699.71 5734.3 7685.65 5749.9 7673.96 5765.5 7662.26 5781.1 7652.35 5796.7 7641.02 5812.3 7629.69 5827.9 7617.67 5843.5 7605.98 5859.1 7594.28 5874.7 7582.54 5890.3 7570.85 5905.9 7559.15 5921.5 7547.49 5937.1 7535.81 5952.7 7524.14 5968.3 7512.48 5983.9 7500.78 5999.5 7489.08 6015.1 7477.35 6030.7 7465.64 6046.3 7453.93 6069.7 7436.36 6077.5 7430.5" stroke="#FFC000" stroke-width="6.875" stroke-linecap="round" stroke-linejoin="round" stroke-miterlimit="10" stroke-opacity="0.501961" fill="none"/></g><g><path d="M5609.5 7757.5C5625.1 7755.74 5640.7 7754.11 5656.3 7752.22 5671.9 7750.33 5687.5 7748.35 5703.1 7746.15 5718.7 7743.95 5734.3 7741.65 5749.9 7739.04 5765.5 7736.43 5781.1 7733.71 5796.7 7730.5 5812.3 7727.28 5827.9 7724.11 5843.5 7719.74 5859.1 7715.37 5874.7 7710.5 5890.3 7704.27 5905.9 7698.03 5921.5 7689.64 5937.1 7682.32 5952.7 7675.01 5968.3 7667.69 5983.9 7660.37 5999.5 7653.04 6015.1 7645.7 6030.7 7638.39 6046.3 7631.08 6069.7 7620.15 6077.5 7616.5" stroke="#5B9BD5" stroke-width="6.875" stroke-linecap="round" stroke-linejoin="round" stroke-miterlimit="10" stroke-opacity="0.501961" fill="none"/></g><g><path d="M5609.5 7758.5C5625.1 7756.83 5640.7 7755.27 5656.3 7753.48 5671.9 7751.69 5687.5 7749.81 5703.1 7747.75 5718.7 7745.69 5734.3 7743.52 5749.9 7741.11 5765.5 7738.69 5781.1 7736.16 5796.7 7733.27 5812.3 7730.37 5827.9 7727.33 5843.5 7723.72 5859.1 7720.11 5874.7 7716.58 5890.3 7711.6 5905.9 7706.62 5921.5 7700.21 5937.1 7693.84 5952.7 7687.46 5968.3 7680.16 5983.9 7673.34 5999.5 7666.53 6015.1 7659.75 6030.7 7652.94 6046.3 7646.14 6069.7 7635.91 6077.5 7632.5" stroke="#70AD47" stroke-width="6.875" stroke-linecap="round" stroke-linejoin="round" stroke-miterlimit="10" stroke-opacity="0.501961" fill="none"/></g><g><path d="M5609.5 7765.5C5625.1 7763.6 5640.7 7761.68 5656.3 7759.8 5671.9 7757.91 5687.5 7756.05 5703.1 7754.18 5718.7 7752.3 5734.3 7750.52 5749.9 7748.52 5765.5 7746.52 5781.1 7744.46 5796.7 7742.19 5812.3 7739.91 5827.9 7737.52 5843.5 7734.86 5859.1 7732.2 5874.7 7729.4 5890.3 7726.22 5905.9 7723.04 5921.5 7719.69 5937.1 7715.78 5952.7 7711.87 5968.3 7707.66 5983.9 7702.76 5999.5 7697.86 6015.1 7691.93 6030.7 7686.39 6046.3 7680.84 6069.7 7672.31 6077.5 7669.5" stroke="#002060" stroke-width="6.875" stroke-linecap="round" stroke-linejoin="round" stroke-miterlimit="10" stroke-opacity="0.501961" fill="none"/></g><g><path d="M5609.5 7732.5C5625.1 7725.43 5640.7 7718.38 5656.3 7711.28 5671.9 7704.18 5687.5 7697.02 5703.1 7689.91 5718.7 7682.79 5734.3 7676.84 5749.9 7668.61 5765.5 7660.37 5781.1 7651.01 5796.7 7640.5 5812.3 7629.98 5827.9 7617.2 5843.5 7605.54 5859.1 7593.87 5874.7 7582.16 5890.3 7570.49 5905.9 7558.83 5921.5 7547.2 5937.1 7535.55 5952.7 7523.9 5968.3 7512.27 5983.9 7500.6 5999.5 7488.94 6015.1 7477.24 6030.7 7465.55 6046.3 7453.87 6069.7 7436.34 6077.5 7430.5" stroke="#ED7D31" stroke-width="6.875" stroke-linecap="round" stroke-linejoin="round" stroke-miterlimit="10" fill="none"/></g><g><text fill="#595959" font-family="Times New Roman,Times New Roman_MSFontService,sans-serif" font-weight="400" font-size="50" transform="matrix(1 0 0 1 5541.56 7867)">0</text></g><g><text fill="#595959" font-family="Times New Roman,Times New Roman_MSFontService,sans-serif" font-weight="400" font-size="50" transform="matrix(1 0 0 1 5516.35 7782)">50</text></g><g><text fill="#595959" font-family="Times New Roman,Times New Roman_MSFontService,sans-serif" font-weight="400" font-size="50" transform="matrix(1 0 0 1 5491.15 7698)">100</text></g><g><text fill="#595959" font-family="Times New Roman,Times New Roman_MSFontService,sans-serif" font-weight="400" font-size="50" transform="matrix(1 0 0 1 5491.15 7613)">150</text></g><g><text fill="#595959" font-family="Times New Roman,Times New Roman_MSFontService,sans-serif" font-weight="400" font-size="50" transform="matrix(1 0 0 1 5491.15 7528)">200</text></g><g><text fill="#595959" font-family="Times New Roman,Times New Roman_MSFontService,sans-serif" font-weight="400" font-size="50" transform="matrix(1 0 0 1 5491.15 7444)">250</text></g><g><text fill="#595959" font-family="Times New Roman,Times New Roman_MSFontService,sans-serif" font-weight="400" font-size="50" transform="matrix(1 0 0 1 5491.15 7359)">300</text></g><g><text fill="#595959" font-family="Times New Roman,Times New Roman_MSFontService,sans-serif" font-weight="400" font-size="50" transform="matrix(1 0 0 1 5491.15 7275)">350</text></g><g><text fill="#595959" font-family="Times New Roman,Times New Roman_MSFontService,sans-serif" font-weight="400" font-size="50" transform="matrix(1 0 0 1 5597.05 7926)">0</text></g><g><text fill="#595959" font-family="Times New Roman,Times New Roman_MSFontService,sans-serif" font-weight="400" font-size="50" transform="matrix(1 0 0 1 5799.71 7926)">0.25</text></g><g><text fill="#595959" font-family="Times New Roman,Times New Roman_MSFontService,sans-serif" font-weight="400" font-size="50" transform="matrix(1 0 0 1 6046.48 7926)">0.5</text></g><g><text fill="#595959" font-family="Times New Roman,Times New Roman_MSFontService,sans-serif" font-weight="400" font-size="46" transform="matrix(6.12323e-17 -1 1 6.12323e-17 5467.68 7913)">Specific Net Power, kW/(kg</text></g><g><text fill="#595959" font-family="Times New Roman,Times New Roman_MSFontService,sans-serif" font-weight="400" font-size="31" transform="matrix(6.12323e-17 -1 1 6.12323e-17 5477.67 7393)">Water</text></g><g><text fill="#595959" font-family="Times New Roman,Times New Roman_MSFontService,sans-serif" font-weight="400" font-size="46" transform="matrix(6.12323e-17 -1 1 6.12323e-17 5467.68 7319)">/s)</text></g><g><text fill="#595959" font-family="Times New Roman,Times New Roman_MSFontService,sans-serif" font-weight="400" font-size="50" transform="matrix(1 0 0 1 5698.92 7997)">Steam Quality</text></g><rect x="4120" y="7208" width="1247" height="858" fill="#FFFFFF"/><g><path d="M4362.5 7732.75 4836.5 7732.75M4362.5 7613.75 4836.5 7613.75M4362.5 7495.75 4836.5 7495.75M4362.5 7377.74 4836.5 7377.74M4362.5 7259.5 4836.5 7259.5" stroke="#D9D9D9" stroke-width="3.4375" stroke-linejoin="round" stroke-miterlimit="10" fill="none"/></g><g><path d="M4599.65 7259.5 4599.65 7850.5M4836.5 7259.5 4836.5 7850.5" stroke="#D9D9D9" stroke-width="3.4375" stroke-linejoin="round" stroke-miterlimit="10" fill="none"/></g><g><path d="M0 0 0.000360892 591" stroke="#BFBFBF" stroke-width="3.4375" stroke-linejoin="round" stroke-miterlimit="10" fill="none" fill-rule="evenodd" transform="matrix(1 0 0 -1 4362.5 7850.5)"/></g><g><path d="M4362.5 7850.5 4836.5 7850.5" stroke="#BFBFBF" stroke-width="3.4375" stroke-linejoin="round" stroke-miterlimit="10" fill="none" fill-rule="evenodd"/></g><g><path d="M4362.5 7642.5C4370.4 7638.49 4378.3 7634.43 4386.2 7630.48 4394.1 7626.54 4402 7622.65 4409.9 7618.83 4417.8 7615 4425.7 7611.23 4433.6 7607.51 4441.5 7603.8 4449.4 7600.14 4457.3 7596.53 4465.2 7592.92 4473.1 7589.37 4481 7585.87 4488.9 7582.36 4496.8 7578.91 4504.7 7575.5 4512.6 7572.1 4520.5 7568.74 4528.4 7565.43 4536.3 7562.12 4544.2 7558.86 4552.1 7555.65 4560 7552.43 4567.9 7549.26 4575.8 7546.14 4583.7 7543.01 4591.6 7539.98 4599.5 7536.89 4607.4 7533.81 4615.3 7530.98 4623.2 7527.6 4631.1 7524.23 4639 7520.13 4646.9 7516.64 4654.8 7513.14 4662.7 7509.99 4670.6 7506.65 4678.5 7503.3 4686.4 7499.94 4694.3 7496.57 4702.2 7493.19 4710.1 7489.8 4718 7486.4 4725.9 7483 4733.8 7479.59 4741.7 7476.16 4749.6 7472.74 4757.5 7469.3 4765.4 7465.85 4773.3 7462.4 4781.2 7458.94 4789.1 7455.46 4797 7451.99 4804.9 7448.51 4812.8 7445.01 4820.7 7441.52 4828.6 7438 4836.5 7434.5" stroke="#4472C4" stroke-width="6.875" stroke-linecap="round" stroke-linejoin="round" stroke-miterlimit="10" fill="none"/></g><g><path d="M4362.5 7777.5C4370.4 7774.81 4378.3 7772.27 4386.2 7769.42 4394.1 7766.56 4402 7763.59 4409.9 7760.38 4417.8 7757.16 4425.7 7753.84 4433.6 7750.11 4441.5 7746.39 4449.4 7742.52 4457.3 7738.03 4465.2 7733.53 4473.1 7728.88 4481 7723.15 4488.9 7717.41 4496.8 7711.57 4504.7 7703.64 4512.6 7695.71 4520.5 7687.62 4528.4 7675.58 4536.3 7663.54 4544.2 7642.87 4552.1 7631.4 4560 7619.93 4567.9 7614.58 4575.8 7606.77 4583.7 7598.96 4591.6 7591.27 4599.5 7584.55 4607.4 7577.84 4615.3 7572.24 4623.2 7566.48 4631.1 7560.72 4639 7554.99 4646.9 7549.98 4654.8 7544.97 4662.7 7540.64 4670.6 7536.42 4678.5 7532.21 4686.4 7528.34 4694.3 7524.69 4702.2 7521.04 4710.1 7517.68 4718 7514.52 4725.9 7511.35 4733.8 7508.46 4741.7 7505.7 4749.6 7502.95 4757.5 7500.42 4765.4 7498 4773.3 7495.57 4781.2 7493.33 4789.1 7491.17 4797 7489.01 4804.9 7486.99 4812.8 7485.04 4820.7 7483.1 4828.6 7481.35 4836.5 7479.5" stroke="#D9D9D9" stroke-width="6.875" stroke-linecap="round" stroke-linejoin="round" stroke-miterlimit="10" stroke-opacity="0.901961" fill="none"/></g><g><path d="M4362.5 7781.5C4370.4 7779.18 4378.3 7776.96 4386.2 7774.55 4394.1 7772.15 4402 7769.65 4409.9 7767.08 4417.8 7764.5 4425.7 7761.87 4433.6 7759.09 4441.5 7756.3 4449.4 7753.4 4457.3 7750.36 4465.2 7747.33 4473.1 7744.21 4481 7740.89 4488.9 7737.56 4496.8 7734.25 4504.7 7730.43 4512.6 7726.62 4520.5 7722.65 4528.4 7717.99 4536.3 7713.32 4544.2 7708.37 4552.1 7702.45 4560 7696.52 4567.9 7690.4 4575.8 7682.41 4583.7 7674.43 4591.6 7666.5 4599.5 7654.52 4607.4 7642.55 4615.3 7629.1 4623.2 7610.57 4631.1 7592.05 4639 7560.48 4646.9 7543.39 4654.8 7526.31 4662.7 7518.91 4670.6 7508.08 4678.5 7497.24 4686.4 7487.47 4694.3 7478.37 4702.2 7469.27 4710.1 7460.7 4718 7453.48 4725.9 7446.26 4733.8 7440.82 4741.7 7435.06 4749.6 7429.3 4757.5 7423.88 4765.4 7418.94 4773.3 7413.99 4781.2 7409.5 4789.1 7405.37 4797 7401.24 4804.9 7397.64 4812.8 7394.16 4820.7 7390.68 4828.6 7387.72 4836.5 7384.5" stroke="#FFC000" stroke-width="6.875" stroke-linecap="round" stroke-linejoin="round" stroke-miterlimit="10" stroke-opacity="0.501961" fill="none"/></g><g><path d="M4362.5 7784.5C4370.4 7782.39 4378.3 7780.34 4386.2 7778.17 4394.1 7776.01 4402 7773.78 4409.9 7771.5 4417.8 7769.21 4425.7 7766.87 4433.6 7764.46 4441.5 7762.06 4449.4 7759.59 4457.3 7757.05 4465.2 7754.52 4473.1 7751.91 4481 7749.23 4488.9 7746.55 4496.8 7743.8 4504.7 7740.98 4512.6 7738.16 4520.5 7735.27 4528.4 7732.29 4536.3 7729.31 4544.2 7726.25 4552.1 7723.1 4560 7719.95 4567.9 7716.71 4575.8 7713.38 4583.7 7710.04 4591.6 7706.61 4599.5 7703.07 4607.4 7699.53 4615.3 7695.92 4623.2 7692.13 4631.1 7688.34 4639 7684.39 4646.9 7680.32 4654.8 7676.25 4662.7 7672.12 4670.6 7667.7 4678.5 7663.28 4686.4 7658.68 4694.3 7653.82 4702.2 7648.96 4710.1 7645.28 4718 7638.55 4725.9 7631.83 4733.8 7623.87 4741.7 7613.48 4749.6 7603.09 4757.5 7592.21 4765.4 7576.22 4773.3 7560.23 4781.2 7535.18 4789.1 7517.55 4797 7499.92 4804.9 7485.62 4812.8 7470.44 4820.7 7455.27 4828.6 7441.15 4836.5 7426.5" stroke="#5B9BD5" stroke-width="6.875" stroke-linecap="round" stroke-linejoin="round" stroke-miterlimit="10" stroke-opacity="0.501961" fill="none"/></g><g><path d="M4385.5 7778.5C4389.46 7777.38 4401.32 7774.04 4409.24 7771.77 4417.15 7769.5 4425.06 7767.23 4432.97 7764.88 4440.89 7762.52 4448.8 7760.11 4456.71 7757.64 4464.62 7755.17 4472.54 7752.63 4480.45 7750.03 4488.36 7747.43 4496.27 7744.76 4504.18 7742.02 4512.1 7739.29 4520.01 7736.48 4527.92 7733.62 4535.83 7730.77 4543.75 7727.93 4551.66 7724.91 4559.57 7721.88 4567.48 7718.68 4575.4 7715.47 4583.31 7712.27 4591.22 7709.03 4599.13 7705.67 4607.04 7702.31 4614.96 7698.87 4622.87 7695.32 4630.78 7691.77 4638.69 7688.14 4646.6 7684.38 4654.52 7680.62 4662.43 7676.75 4670.34 7672.76 4678.25 7668.77 4686.17 7664.72 4694.08 7660.44 4701.99 7656.16 4709.9 7651.71 4717.82 7647.07 4725.73 7642.44 4733.64 7637.71 4741.55 7632.64 4749.46 7627.56 4757.38 7623.59 4765.29 7616.64 4773.2 7609.69 4781.11 7602.25 4789.03 7590.92 4796.94 7579.58 4804.85 7565.84 4812.76 7548.6 4820.68 7531.37 4828.59 7507.87 4836.5 7487.5" stroke="#70AD47" stroke-width="6.875" stroke-linecap="round" stroke-linejoin="round" stroke-miterlimit="10" stroke-opacity="0.501961" fill="none"/></g><g><path d="M4457.5 7765.5C4461.45 7764.16 4473.29 7760.13 4481.19 7757.44 4489.08 7754.75 4496.98 7752.05 4504.88 7749.36 4512.77 7746.66 4520.67 7743.97 4528.56 7741.27 4536.46 7738.57 4544.35 7735.87 4552.25 7733.16 4560.15 7730.45 4568.04 7727.77 4575.94 7724.99 4583.83 7722.21 4591.73 7719.39 4599.62 7716.5 4607.52 7713.61 4615.42 7710.66 4623.31 7707.66 4631.21 7704.65 4639.1 7701.59 4647 7698.46 4654.9 7695.33 4662.79 7692.15 4670.69 7688.89 4678.58 7685.63 4686.48 7682.31 4694.38 7678.92 4702.27 7675.53 4710.17 7672.07 4718.06 7668.54 4725.96 7665.01 4733.85 7661.4 4741.75 7657.72 4749.65 7654.04 4757.54 7650.28 4765.44 7646.44 4773.33 7642.6 4781.23 7638.68 4789.12 7634.67 4797.02 7630.66 4804.92 7626.56 4812.81 7622.37 4820.71 7618.17 4828.6 7613.79 4836.5 7609.5" stroke="#203864" stroke-width="6.875" stroke-linecap="round" stroke-linejoin="round" stroke-miterlimit="10" stroke-opacity="0.501961" fill="none"/></g><g><path d="M4362.5 7777.5C4370.4 7774.81 4378.3 7772.28 4386.2 7769.42 4394.1 7766.57 4402 7763.6 4409.9 7760.39 4417.8 7757.17 4425.7 7753.85 4433.6 7750.13 4441.5 7746.41 4449.4 7742.54 4457.3 7738.05 4465.2 7733.56 4473.1 7728.91 4481 7723.18 4488.9 7717.46 4496.8 7711.61 4504.7 7703.69 4512.6 7695.77 4520.5 7687.68 4528.4 7675.65 4536.3 7663.62 4544.2 7642.96 4552.1 7631.5 4560 7620.03 4567.9 7614.69 4575.8 7606.88 4583.7 7599.08 4591.6 7591.39 4599.5 7584.68 4607.4 7577.97 4615.3 7573.54 4623.2 7566.62 4631.1 7559.71 4639 7552.97 4646.9 7543.19 4654.8 7533.41 4662.7 7518.74 4670.6 7507.92 4678.5 7497.1 4686.4 7487.34 4694.3 7478.25 4702.2 7469.16 4710.1 7460.6 4718 7453.39 4725.9 7446.18 4733.8 7440.74 4741.7 7434.99 4749.6 7429.25 4757.5 7423.83 4765.4 7418.89 4773.3 7413.95 4781.2 7409.47 4789.1 7405.34 4797 7401.22 4804.9 7397.62 4812.8 7394.15 4820.7 7390.67 4828.6 7387.71 4836.5 7384.5" stroke="#ED7D31" stroke-width="6.875" stroke-linecap="round" stroke-linejoin="round" stroke-miterlimit="10" fill="none"/></g><g><text fill="#595959" font-family="Times New Roman,Times New Roman_MSFontService,sans-serif" font-weight="400" font-size="50" transform="matrix(1 0 0 1 4294.03 7867)">0</text></g><g><text fill="#595959" font-family="Times New Roman,Times New Roman_MSFontService,sans-serif" font-weight="400" font-size="50" transform="matrix(1 0 0 1 4268.83 7748)">50</text></g><g><text fill="#595959" font-family="Times New Roman,Times New Roman_MSFontService,sans-serif" font-weight="400" font-size="50" transform="matrix(1 0 0 1 4243.62 7630)">100</text></g><g><text fill="#595959" font-family="Times New Roman,Times New Roman_MSFontService,sans-serif" font-weight="400" font-size="50" transform="matrix(1 0 0 1 4243.62 7512)">150</text></g><g><text fill="#595959" font-family="Times New Roman,Times New Roman_MSFontService,sans-serif" font-weight="400" font-size="50" transform="matrix(1 0 0 1 4243.62 7393)">200</text></g><g><text fill="#595959" font-family="Times New Roman,Times New Roman_MSFontService,sans-serif" font-weight="400" font-size="50" transform="matrix(1 0 0 1 4243.62 7275)">250</text></g><g><text fill="#595959" font-family="Times New Roman,Times New Roman_MSFontService,sans-serif" font-weight="400" font-size="50" transform="matrix(1 0 0 1 4324.31 7926)">100</text></g><g><text fill="#595959" font-family="Times New Roman,Times New Roman_MSFontService,sans-serif" font-weight="400" font-size="50" transform="matrix(1 0 0 1 4561.63 7926)">150</text></g><g><text fill="#595959" font-family="Times New Roman,Times New Roman_MSFontService,sans-serif" font-weight="400" font-size="50" transform="matrix(1 0 0 1 4798.94 7926)">200</text></g><g><text fill="#595959" font-family="Times New Roman,Times New Roman_MSFontService,sans-serif" font-weight="400" font-size="46" transform="matrix(6.12323e-17 -1 1 6.12323e-17 4220.15 7913)">Specific Net Power, kW/(kg</text></g><g><text fill="#595959" font-family="Times New Roman,Times New Roman_MSFontService,sans-serif" font-weight="400" font-size="31" transform="matrix(6.12323e-17 -1 1 6.12323e-17 4230.14 7393)">Water</text></g><g><text fill="#595959" font-family="Times New Roman,Times New Roman_MSFontService,sans-serif" font-weight="400" font-size="46" transform="matrix(6.12323e-17 -1 1 6.12323e-17 4220.15 7319)">/s)</text></g><g><text fill="#595959" font-family="Times New Roman,Times New Roman_MSFontService,sans-serif" font-weight="400" font-size="50" transform="matrix(1 0 0 1 4431.2 7997)">Temperature, </text></g><g><text fill="#595959" font-family="Times New Roman,Times New Roman_MSFontService,sans-serif" font-weight="400" font-size="50" transform="matrix(1 0 0 1 4713.9 7997)">°</text></g><g><text fill="#595959" font-family="Times New Roman,Times New Roman_MSFontService,sans-serif" font-weight="400" font-size="50" transform="matrix(1 0 0 1 4734.06 7997)">C</text></g><g><path d="M4946.5 7388.5 5034.5 7388.5" stroke="#4472C4" stroke-width="6.875" stroke-linecap="round" stroke-linejoin="round" stroke-miterlimit="10" fill="none" fill-rule="evenodd"/></g><g><text fill="#595959" font-family="Times New Roman,Times New Roman_MSFontService,sans-serif" font-weight="400" font-size="50" transform="matrix(1 0 0 1 5043.57 7404)">Flash</text></g><g><path d="M4946.5 7471.5 5034.5 7471.5" stroke="#D9D9D9" stroke-width="6.875" stroke-linecap="round" stroke-linejoin="round" stroke-miterlimit="10" stroke-opacity="0.901961" fill="none" fill-rule="evenodd"/></g><g><text fill="#595959" font-family="Times New Roman,Times New Roman_MSFontService,sans-serif" font-weight="400" font-size="50" transform="matrix(1 0 0 1 5043.57 7487)">Isobutane</text></g><g><path d="M4946.5 7554.5 5034.5 7554.5" stroke="#FFC000" stroke-width="6.875" stroke-linecap="round" stroke-linejoin="round" stroke-miterlimit="10" stroke-opacity="0.501961" fill="none" fill-rule="evenodd"/></g><g><text fill="#595959" font-family="Times New Roman,Times New Roman_MSFontService,sans-serif" font-weight="400" font-size="50" transform="matrix(1 0 0 1 5043.57 7570)">n-Butane</text></g><g><path d="M4946.5 7636.5 5034.5 7636.5" stroke="#5B9BD5" stroke-width="6.875" stroke-linecap="round" stroke-linejoin="round" stroke-miterlimit="10" stroke-opacity="0.501961" fill="none" fill-rule="evenodd"/></g><g><text fill="#595959" font-family="Times New Roman,Times New Roman_MSFontService,sans-serif" font-weight="400" font-size="50" transform="matrix(1 0 0 1 5043.57 7653)">Isopentane</text></g><g><path d="M4946.5 7719.5 5034.5 7719.5" stroke="#70AD47" stroke-width="6.875" stroke-linecap="round" stroke-linejoin="round" stroke-miterlimit="10" stroke-opacity="0.501961" fill="none" fill-rule="evenodd"/></g><g><text fill="#595959" font-family="Times New Roman,Times New Roman_MSFontService,sans-serif" font-weight="400" font-size="50" transform="matrix(1 0 0 1 5043.57 7735)">n-Pentane</text></g><g><path d="M4946.5 7802.5 5034.5 7802.5" stroke="#203864" stroke-width="6.875" stroke-linecap="round" stroke-linejoin="round" stroke-miterlimit="10" stroke-opacity="0.501961" fill="none" fill-rule="evenodd"/></g><g><text fill="#595959" font-family="Times New Roman,Times New Roman_MSFontService,sans-serif" font-weight="400" font-size="50" transform="matrix(1 0 0 1 5043.57 7818)">Cyclopentane</text></g><g><path d="M4946.5 7885.5 5034.5 7885.5" stroke="#ED7D31" stroke-width="6.875" stroke-linecap="round" stroke-linejoin="round" stroke-miterlimit="10" fill="none" fill-rule="evenodd"/></g><g><text fill="#595959" font-family="Times New Roman,Times New Roman_MSFontService,sans-serif" font-weight="400" font-size="50" transform="matrix(1 0 0 1 5043.57 7901)">ORC</text></g></g></svg>